<?xml version="1.0" encoding="UTF-8"?><svg id="a" xmlns="http://www.w3.org/2000/svg" viewBox="0 0 256 256"><defs><style>.b{fill:#ff5460;fill-rule:evenodd;}.c{fill:none;stroke:#ff5460;stroke-width:12px;}</style></defs><circle class="c" cx="128" cy="128.12" r="90"/><path class="b" d="M159.52,54.56c-5.53,3.73-13.12,9.02-15.77,12.65-.33,.45-.69,1.34-1.14,2.46-1.4,3.47-3.65,9.05-8.37,9.64-1.62,.2-3.81,.06-6.13-.09h0c-6.22-.4-14.71-.95-17.43,6.44-1.73,4.68-2.03,17.4,3.56,24,.9,1.05,1.07,3,.46,5.19-.8,2.87-2.41,4.62-2.92,4.98-.93-.54-2.77-2.66-4.08-4.17l-.11-.13c-3.13-3.65-7.05-8.2-12.11-9.6-1.7-.47-3.55-.87-5.38-1.25l-.45-.1c-5.49-1.15-11.7-2.46-13.15-5.54-1.05-2.24-1.05-5.31-1.05-8.56v-.09c0-4.17,0-8.88-2.04-13.45-.71-1.63-1.75-3.1-3.06-4.3-2.72-1.95-5.66-3.7-8.54-5.25,16.45-17.94,39.93-29.27,66.19-29.27,14.56,0,28.11,3.6,40.28,9.74-3.41,2.32-6.61,4.88-8.76,6.7Zm28.31,140.79l2.74-17.38c.6-2.99,.98-6.43,.98-10.34v-1.05c0-9.22,0-13.43-6.52-17.16-2.75-1.55-4.8-2.5-6.45-3.25-3.67-1.66-6.1-2.76-9.38-7.56l-1.16-1.72c-3.45-5.25-5.94-9.03-15.42-7.53-18.65,2.96-20.03,6.24-20.85,11.78l-.13,.91c-1.21,8.09-1.43,10.82,1.95,14.37,12.65,13.27,20.23,22.84,22.53,28.44,1.03,2.52,3.55,9.72,2.4,17.22l-.52,10.7c11.1-3.93,21.21-9.76,29.83-17.44Z"/></svg>