<?xml version="1.0" encoding="UTF-8"?><svg id="a" xmlns="http://www.w3.org/2000/svg" viewBox="0 0 256 256"><defs><style>.b{fill:none;stroke:#ff5460;stroke-miterlimit:10;stroke-width:12px;}</style></defs><path class="b" d="M204.12,69.88c-18.5-18.5-48.49-18.49-66.99,0h0l-9.13,9.13-8.58-8.58c-18.37-18.37-48.3-19.18-66.97-1.12s-19.27,48.87-.58,67.56l9.13,9.13,44.8,44.8c12.26,12.26,32.14,12.26,44.4,0l44.8-44.8,9.13-9.13c18.5-18.49,18.51-48.48,.02-66.98l-.02-.02Z"/><path class="b" d="M184.8,155.09l-43.38-43.38-11.89,11.89c-6.39,6.39-16.75,6.39-23.14,0h0c-6.39-6.39-6.39-16.75,0-23.14l27.53-27.53"/><line class="b" x1="150.65" y1="194.97" x2="116.31" y2="160.62"/><line class="b" x1="169.15" y1="176.47" x2="134.8" y2="142.12"/></svg>