<svg xmlns="http://www.w3.org/2000/svg" xmlns:xlink="http://www.w3.org/1999/xlink" version="1.1" x="0px" y="0px" width="92px" height="92px" viewBox="0 0 92 92" enable-background="new 0 0 92 92" xml:space="preserve"><style>.style0{fill:	#FFFFFF;}.style1{stop-color:	#1A1A1C;}.style10{fill:	url(#SVGID_6_);}.style11{fill:	url(#SVGID_7_);}.style12{fill:	url(#SVGID_8_);}.style13{fill:	url(#SVGID_9_);}.style14{fill:	url(#SVGID_10_);}.style15{fill:	url(#SVGID_11_);}.style16{fill:	url(#SVGID_12_);}.style17{fill:	url(#SVGID_13_);}.style18{fill:	url(#SVGID_14_);}.style19{fill:	url(#SVGID_15_);}.style2{stop-color:	#5B5B5C;}.style20{fill:	url(#SVGID_16_);}.style21{fill:	url(#SVGID_17_);}.style22{fill:	url(#SVGID_18_);}.style23{fill:	url(#SVGID_19_);}.style24{fill:	url(#SVGID_20_);}.style25{fill:	url(#SVGID_21_);}.style26{fill:	url(#SVGID_22_);}.style27{fill:	url(#SVGID_23_);}.style28{fill:	url(#SVGID_24_);}.style29{fill:	url(#SVGID_25_);}.style3{stop-color:	#4F4F4F;}.style30{fill:	url(#SVGID_26_);}.style31{fill:	url(#SVGID_27_);}.style32{fill:	url(#SVGID_28_);}.style33{fill:	url(#SVGID_29_);}.style34{fill:	url(#SVGID_30_);}.style35{fill:	url(#SVGID_31_);}.style36{fill:	url(#SVGID_32_);}.style37{fill:	url(#SVGID_33_);}.style38{fill:	url(#SVGID_34_);}.style39{fill:	url(#SVGID_35_);}.style4{stop-color:	#000000;}.style40{fill:	url(#SVGID_36_);}.style41{fill:	url(#SVGID_37_);}.style42{fill:	url(#SVGID_38_);}.style43{fill:	url(#SVGID_39_);}.style44{fill:	url(#SVGID_40_);}.style45{fill:	url(#SVGID_41_);}.style46{fill:	url(#SVGID_42_);}.style47{fill:	url(#SVGID_43_);}.style48{fill:	url(#SVGID_44_);}.style49{fill:	url(#SVGID_45_);}.style5{fill:	url(#SVGID_1_);}.style50{fill:	url(#SVGID_46_);}.style51{fill:	url(#SVGID_47_);}.style52{fill:	url(#SVGID_48_);}.style53{fill:	url(#SVGID_49_);}.style54{fill:	url(#SVGID_50_);}.style55{fill:	url(#SVGID_51_);}.style56{fill:	url(#SVGID_52_);}.style57{fill:	url(#SVGID_53_);}.style58{fill:	url(#SVGID_54_);}.style59{fill:	url(#SVGID_55_);}.style6{fill:	url(#SVGID_2_);}.style60{fill:	url(#SVGID_56_);}.style61{fill:	url(#SVGID_57_);}.style62{fill:	url(#SVGID_58_);}.style63{fill:	url(#SVGID_59_);}.style64{fill:	url(#SVGID_60_);}.style65{fill:	url(#SVGID_61_);}.style66{fill:	url(#SVGID_62_);}.style7{fill:	url(#SVGID_3_);}.style8{fill:	url(#SVGID_4_);}.style9{fill:	url(#SVGID_5_);}</style><g><g><path d="M46 4.3C69.1 4.3 87.8 23 87.8 46S69.1 87.7 46 87.7C22.9 87.7 4.2 69 4.2 46S22.9 4.3 46 4.3 M46 3 C34.5 3 23.7 7.5 15.5 15.6C7.4 23.7 2.9 34.5 2.9 46s4.5 22.3 12.6 30.4C23.7 84.5 34.5 89 46 89c11.5 0 22.3-4.5 30.5-12.6 c8.1-8.1 12.6-18.9 12.6-30.4s-4.5-22.3-12.6-30.4C68.3 7.5 57.5 3 46 3L46 3z" class="style0"/><path d="M46 1.2c24.8 0 44.9 20.1 44.9 44.8c0 24.8-20.1 44.8-44.9 44.8S1.1 70.8 1.1 46C1.1 21.2 21.2 1.2 46 1.2 M46 0.7c-12.1 0-23.5 4.7-32.1 13.3c-4.2 4.2-7.4 9-9.7 14.4C1.8 33.9 0.6 39.9 0.6 46c0 6.1 1.2 12.1 3.6 17.7 c2.3 5.4 5.6 10.2 9.7 14.4c8.6 8.6 20 13.3 32.1 13.3s23.5-4.7 32.1-13.3c4.2-4.2 7.4-9 9.7-14.4c2.4-5.6 3.6-11.5 3.6-17.7 c0-6.1-1.2-12.1-3.6-17.7c-2.3-5.4-5.6-10.2-9.7-14.4C69.5 5.4 58.1 0.7 46 0.7L46 0.7z" class="style0"/><g><polygon points="46,71.7 49,73.3 48.5,70 50.9,67.6 47.5,67 46,64 44.5,67 41.2,67.6 43.5,70 43,73.3" class="style0"/><g><polygon points="58,67.7 59.9,68.7 59.5,66.6 61,65.1 58.9,64.7 58,62.9 57,64.7 54.9,65.1 56.4,66.6 56.1,68.7" class="style0"/><polygon points="34.1,67.7 35.9,68.7 35.6,66.6 37.1,65.1 35,64.7 34.1,62.9 33.1,64.7 31,65.1 32.5,66.6 32.2,68.7" class="style0"/></g></g><g><polygon points="46,26.2 49,27.7 48.5,24.4 50.9,22 47.5,21.5 46,18.5 44.5,21.5 41.2,22 43.5,24.4 43,27.7" class="style0"/><g><polygon points="58,28 59.9,28.9 59.5,26.8 61,25.3 58.9,25 58,23.1 57,25 54.9,25.3 56.4,26.8 56.1,28.9" class="style0"/><polygon points="34.1,28 35.9,28.9 35.6,26.8 37.1,25.3 35,25 34.1,23.1 33.1,25 31,25.3 32.5,26.8 32.2,28.9" class="style0"/></g></g><g><path d="M22.3 52.7c1.3 0.7 3.4 1.4 5.5 1.4c2.3 0 3.5-1 3.5-2.4c0-1.4-1-2.2-3.7-3.1c-3.7-1.3-6.1-3.3-6.1-6.6 c0-3.8 3.2-6.6 8.4-6.6c2.5 0 4.3 0.5 5.6 1.1l-1.1 4c-0.9-0.4-2.5-1-4.6-1c-2.2 0-3.2 1-3.2 2.1c0 1.4 1.2 2 4.1 3.1 c3.9 1.4 5.7 3.5 5.7 6.6c0 3.7-2.8 6.9-8.9 6.9c-2.5 0-5-0.7-6.3-1.4L22.3 52.7z" class="style0"/><path d="M40 52.7c1.3 0.7 3.4 1.4 5.5 1.4c2.3 0 3.5-1 3.5-2.4c0-1.4-1-2.2-3.7-3.1c-3.7-1.3-6.1-3.3-6.1-6.6 c0-3.8 3.2-6.6 8.4-6.6c2.5 0 4.3 0.5 5.6 1.1l-1.1 4c-0.9-0.4-2.5-1-4.6-1c-2.2 0-3.2 1-3.2 2.1c0 1.4 1.2 2 4.1 3.1 c3.9 1.4 5.7 3.5 5.7 6.6c0 3.7-2.8 6.9-8.9 6.9c-2.5 0-5-0.7-6.3-1.4L40 52.7z" class="style0"/><path d="M57.5 35.8h5v17.9h8.8v4.2H57.5V35.8z" class="style0"/></g></g><g><path d="M33.9 14.9c1.1-0.4 1.3-1.4 0.8-2.9l-1.4-3.5L32.2 9l1.5 3.7c0.3 0.9 0.2 1.2-0.1 1.3 c-0.3 0.1-0.6 0-1-0.9l-1.5-3.7L30 9.8l1.4 3.5C31.9 14.8 32.7 15.4 33.9 14.9z" class="style0"/><path d="M19.4 23.1c0.7 0.6 1.6 0.9 2.1 0.2c0.4-0.5 0.3-1.3-0.6-2.1c-0.6-0.5-1.6-0.9-2.1-0.3 C18.3 21.6 18.7 22.5 19.4 23.1z M19.2 21.4c0.2-0.2 0.6 0 1.2 0.5c0.6 0.5 0.8 0.8 0.7 1c-0.2 0.2-0.6 0-1.2-0.5 C19.3 22 19.1 21.6 19.2 21.4z" class="style0"/><polygon points="19.7,25.6 17.1,19.2 16.7,19.7 19.3,26.1" class="style0"/><polygon points="28.6,17.4 28.1,16.6 26.7,17.5 25.8,16.1 27,15.3 26.4,14.5 25.3,15.3 24.5,14.1 25.7,13.3 25.1,12.4 22.9,13.9 26.3,19" class="style0"/><path d="M31 16.2c0.4-0.2 0.6-0.4 0.7-0.6l-0.6-0.8c-0.1 0.1-0.3 0.3-0.5 0.4c-0.6 0.3-1.4 0.1-2.1-1.2 c-0.7-1.3-0.5-2.1 0.1-2.5c0.2-0.1 0.4-0.1 0.5-0.2l-0.3-1c-0.1 0-0.4 0-0.8 0.2c-1.1 0.6-1.8 2-0.7 4 C28.4 16.2 29.6 16.9 31 16.2z" class="style0"/><polygon points="18.5,72.8 22.2,69.4 21.3,68.5 17.7,72 16.9,71.2 16.1,71.9 18.4,74.4 19.2,73.6" class="style0"/><path d="M15.4 24c0.7 0.6 1.6 0.9 2.1 0.2c0.4-0.5 0.3-1.3-0.6-2.1c-0.6-0.5-1.6-0.9-2.1-0.3 C14.3 22.5 14.7 23.4 15.4 24z M15.3 22.3c0.2-0.2 0.6 0 1.2 0.5c0.6 0.5 0.8 0.8 0.7 1c-0.2 0.2-0.6 0-1.2-0.5 C15.4 22.9 15.1 22.5 15.3 22.3z" class="style0"/><rect x="14.4" y="68.1" transform="matrix(0.7814 -0.624 0.624 0.7814 -39.0708 25.9555)" width="6.1" height="1.2" class="style0"/><path d="M16.3 61.2L15 61.8c-1.1 0.5-1.9 1-2.5 1.3l0 0c0.4-0.4 1-1 1.4-1.4l1.7-1.9l-0.5-1l-5.5 2.7l0.5 0.9 l1.2-0.6c1-0.5 1.9-1 2.5-1.3l0 0c-0.4 0.4-1 1-1.3 1.4l-1.8 1.9l0.5 1l5.5-2.7L16.3 61.2z" class="style0"/><path d="M10.7 59.7c0.5-0.2 1-0.7 1.2-1.6c0.2-0.6 0.3-0.9 0.7-1.1c0.4-0.1 0.7 0 0.9 0.6c0.1 0.3 0.2 0.8 0.1 1 l1-0.2c0-0.2 0-0.7-0.1-1.2c-0.4-1.1-1.4-1.7-2.4-1.3c-0.6 0.2-1.1 0.7-1.3 1.6c-0.2 0.8-0.3 1-0.6 1.1c-0.3 0.1-0.7 0-0.8-0.5 c-0.1-0.3-0.1-0.6-0.1-0.8l-1 0.2c0 0.2 0 0.6 0.1 1C8.8 59.6 9.8 60 10.7 59.7z" class="style0"/><path d="M18.1 64.2c-0.6-1-1.9-1.1-3.8 0.1c-1.2 0.8-2.3 2-1.5 3.2c0.7 1.1 2.3 0.9 3.7 0 C17.9 66.7 18.9 65.4 18.1 64.2z M13.7 67.1c-0.3-0.5 0.4-1.1 1.3-1.7c1-0.7 1.9-1 2.2-0.6c0.3 0.4-0.2 1-1.4 1.8 C14.8 67.3 14 67.5 13.7 67.1z" class="style0"/><polygon points="10,34.9 9.8,33.8 9.8,33.7 14.4,35.3 14.8,34.2 9.2,32.3 8.8,33.2 9,34.8" class="style0"/><path d="M12.5 31.9c1.4 0.7 2.9 0.9 3.5-0.3c0.4-0.9-0.1-2-2-2.9c-1.3-0.6-2.8-1-3.4 0.2 C10 30.1 10.9 31.2 12.5 31.9z M11.4 29.4c0.2-0.3 0.9-0.1 2 0.4c1.2 0.6 1.8 1 1.6 1.3c-0.2 0.4-0.8 0.2-2.1-0.4 C11.7 30.2 11.2 29.8 11.4 29.4z" class="style0"/><path d="M14.3 28.3c1.3 0.8 2.8 1.2 3.5 0.1c0.5-0.8 0.1-2-1.7-3.1c-1.2-0.7-2.7-1.3-3.4-0.2 C12 26.2 12.8 27.4 14.3 28.3z M13.5 25.7c0.2-0.3 0.9 0 2 0.6c1.2 0.7 1.6 1.2 1.4 1.5c-0.2 0.3-0.8 0.2-2-0.6 C13.7 26.5 13.3 26 13.5 25.7z" class="style0"/><path d="M22.7 18.5c0.6-0.1 1-0.1 1.3 0.3c0.3 0.3 0.2 0.7-0.2 1.1c-0.3 0.2-0.7 0.4-0.9 0.5l0.5 0.9 c0.2 0 0.7-0.2 1.1-0.6c0.9-0.8 1.1-1.9 0.4-2.7c-0.4-0.5-1-0.8-2-0.6c-0.8 0.1-1 0.1-1.3-0.2c-0.2-0.3-0.2-0.6 0.2-1 c0.3-0.2 0.5-0.3 0.7-0.3l-0.5-0.9c-0.2 0-0.6 0.2-0.9 0.5c-1 0.8-1 1.9-0.3 2.6C21 18.4 21.7 18.6 22.7 18.5z" class="style0"/><path d="M64.1 17.9l1-1l0.9 0.6l-0.6 1.3l1 0.7l2.5-5.7l-1.2-0.8l-4.6 4.3L64.1 17.9z M66.7 15.3 c0.3-0.3 0.7-0.7 1-1l0 0c-0.2 0.4-0.5 0.9-0.6 1.3l-0.6 1.2l-0.7-0.5L66.7 15.3z" class="style0"/><path d="M37.5 13.7l-0.6-2.4l0.2 0c0.4-0.1 0.6 0.1 0.9 0.8c0.3 0.6 0.5 1.2 0.7 1.4l1.2-0.3 c-0.2-0.2-0.5-0.9-0.8-1.5c-0.3-0.6-0.6-0.9-1-1l0 0c0.5-0.4 0.7-1.1 0.5-1.7c-0.1-0.5-0.3-0.9-0.8-1.1c-0.5-0.2-1.1-0.2-1.7 0 c-0.4 0.1-0.9 0.3-1.2 0.4l1.5 5.9L37.5 13.7z M36.5 8.6c0.5-0.1 0.8 0.2 0.9 0.7c0.1 0.5-0.1 1-0.6 1.1l-0.2 0.1l-0.4-1.8 C36.3 8.6 36.4 8.6 36.5 8.6z" class="style0"/><rect x="71.5" y="22.7" transform="matrix(-0.7814 0.6241 -0.6241 -0.7814 147.2721 -5.0849)" width="6.1" height="1.2" class="style0"/><polygon points="73.5,19.2 69.9,22.6 70.7,23.5 74.4,20 75.1,20.8 75.9,20.1 73.6,17.6 72.8,18.4" class="style0"/><path d="M75.8 30.8l1.2-0.6c1.1-0.5 1.9-1 2.5-1.3l0 0c-0.4 0.4-1 1-1.4 1.4l-1.7 1.9l0.5 1l5.5-2.7L82 29.6 l-1.2 0.6c-1 0.5-1.9 1-2.5 1.3l0 0c0.4-0.4 1-1 1.3-1.4l1.8-1.9l-0.5-1l-5.5 2.7L75.8 30.8z" class="style0"/><path d="M73.9 27.8c0.6 1 1.9 1.1 3.8-0.1c1.2-0.8 2.3-2 1.5-3.2c-0.7-1.1-2.3-0.9-3.7 0 C74.1 25.3 73.2 26.6 73.9 27.8z M78.3 24.9c0.3 0.5-0.4 1.1-1.3 1.7c-1 0.7-1.9 1-2.2 0.6c-0.3-0.4 0.2-1 1.4-1.8 C77.3 24.7 78.1 24.5 78.3 24.9z" class="style0"/><path d="M68.4 17.3c-1.1 1.3-1.4 2.8-0.2 3.8c0.3 0.3 0.6 0.4 0.8 0.5l0.6-0.8c-0.1-0.1-0.3-0.2-0.5-0.3 c-0.6-0.5-0.6-1.3 0.3-2.4c1-1.2 1.8-1.2 2.3-0.8c0.2 0.2 0.3 0.3 0.3 0.5l0.8-0.6c0-0.1-0.2-0.4-0.5-0.7 C71.5 15.7 69.9 15.5 68.4 17.3z" class="style0"/><path d="M49.9 10.4l0.2 0c0.4 0 0.6 0.3 0.6 1c0 0.7 0.1 1.3 0.1 1.5l1.2 0.1c-0.1-0.2-0.2-1-0.2-1.7 c0-0.7-0.2-1.1-0.6-1.3l0 0c0.6-0.2 1-0.8 1.1-1.4c0.1-0.5 0-0.9-0.3-1.3c-0.3-0.4-0.9-0.6-1.6-0.6c-0.5-0.1-0.9-0.1-1.3 0l-0.7 6 l1.2 0.1L49.9 10.4z M50.2 7.6c0.1 0 0.2 0 0.3 0c0.5 0.1 0.7 0.5 0.6 1c-0.1 0.5-0.4 0.9-0.9 0.9l-0.2 0L50.2 7.6z" class="style0"/><polygon points="45.7,12.6 46.9,12.6 46.9,7.6 48,7.6 48.1,6.5 44.7,6.4 44.7,7.5 45.8,7.6" class="style0"/><polygon points="43.1,12.7 42.9,11.7 41.4,11.9 41.2,10.2 42.5,10 42.4,9.1 41,9.2 40.8,7.8 42.3,7.7 42.2,6.6 39.5,7 40.3,13.1" class="style0"/><path d="M62.8 15.2c-0.2 0.4-0.6 0.5-1.1 0.2c-0.3-0.2-0.6-0.4-0.8-0.7l-0.6 0.8c0.1 0.2 0.5 0.5 0.9 0.8 c1.1 0.6 2.1 0.3 2.7-0.7c0.3-0.6 0.3-1.3-0.2-2.1c-0.4-0.7-0.5-0.9-0.3-1.2c0.2-0.3 0.5-0.4 1-0.2c0.3 0.2 0.5 0.4 0.6 0.5 l0.7-0.8c-0.1-0.2-0.4-0.5-0.8-0.6c-1.1-0.6-2.1-0.2-2.6 0.7c-0.3 0.5-0.3 1.2 0.2 2.1C62.9 14.5 63 14.8 62.8 15.2z" class="style0"/><path d="M53.2 13.4l0.6-1.3l1.1 0.3l-0.1 1.4l1.1 0.3l0.3-6.2l-1.4-0.3L52 13.1L53.2 13.4z M54.6 10 c0.1-0.3 0.4-0.9 0.5-1.3l0 0c0 0.4-0.1 1-0.1 1.4L55 11.4l-0.8-0.2L54.6 10z" class="style0"/><path d="M57.8 13.3c0.4-1.2 0.7-2.1 0.9-2.6l0 0c-0.1 0.6-0.1 1.4-0.1 2l0 2.5l1 0.4L62 9.8l-1-0.4l-0.5 1.3 c-0.4 1.1-0.7 2.1-0.9 2.7l0 0c0-0.6 0-1.4 0-1.9l0-2.6l-1-0.4l-2.2 5.7l1 0.4L57.8 13.3z" class="style0"/><polygon points="72.4,66.4 75,72.8 75.4,72.3 72.8,65.9" class="style0"/><path d="M72.6 68.9c-0.7-0.6-1.6-0.9-2.1-0.2c-0.4 0.5-0.3 1.3 0.6 2.1c0.6 0.5 1.6 0.9 2.1 0.3 C73.8 70.4 73.4 69.5 72.6 68.9z M72.8 70.6c-0.2 0.2-0.6 0-1.2-0.5c-0.6-0.5-0.8-0.8-0.7-1c0.2-0.2 0.6 0 1.2 0.5 C72.7 70 73 70.4 72.8 70.6z" class="style0"/><path d="M61 75.8c-0.4 0.2-0.6 0.4-0.7 0.6l0.6 0.8c0.1-0.1 0.3-0.3 0.5-0.3c0.6-0.3 1.4-0.1 2.1 1.2 c0.7 1.3 0.5 2.1-0.1 2.5c-0.2 0.1-0.4 0.1-0.5 0.2l0.3 1c0.1 0 0.4 0 0.8-0.2c1.1-0.6 1.8-2 0.7-4C63.7 75.8 62.4 75.1 61 75.8z" class="style0"/><path d="M69.4 73.5c-0.6 0.1-1 0.1-1.3-0.3c-0.3-0.3-0.2-0.7 0.2-1.1c0.3-0.2 0.7-0.4 0.9-0.5l-0.5-0.9 c-0.2 0-0.7 0.2-1.1 0.6c-0.9 0.8-1.1 1.9-0.4 2.7c0.4 0.5 1 0.8 2 0.6c0.8-0.1 1-0.1 1.3 0.2c0.2 0.3 0.2 0.6-0.2 1 c-0.3 0.2-0.5 0.3-0.7 0.3l0.5 0.9c0.2 0 0.6-0.2 0.9-0.5c1-0.8 1-1.9 0.3-2.6C71 73.6 70.3 73.4 69.4 73.5z" class="style0"/><polygon points="63.4,74.6 64,75.4 65.3,74.5 66.2,75.9 65.1,76.7 65.6,77.5 66.8,76.7 67.6,77.9 66.3,78.7 66.9,79.6 69.1,78.1 65.7,73" class="style0"/><path d="M54.6 78.3l0.6 2.4l-0.2 0c-0.4 0.1-0.6-0.1-0.9-0.8c-0.3-0.6-0.5-1.2-0.7-1.4l-1.2 0.3 c0.2 0.2 0.5 0.9 0.8 1.5c0.3 0.6 0.6 0.9 1 1l0 0c-0.5 0.4-0.7 1.1-0.5 1.7c0.1 0.5 0.3 0.9 0.8 1.1c0.5 0.2 1.1 0.2 1.7 0 c0.4-0.1 0.9-0.3 1.2-0.4L55.7 78L54.6 78.3z M55.5 83.4c-0.5 0.1-0.8-0.2-0.9-0.7c-0.1-0.5 0.1-1 0.6-1.1l0.2-0.1l0.4 1.8 C55.8 83.4 55.7 83.4 55.5 83.4z" class="style0"/><path d="M58.1 77.1c-1.1 0.4-1.3 1.4-0.8 2.9l1.4 3.5l1.1-0.4l-1.5-3.7c-0.3-0.9-0.2-1.2 0.1-1.3 c0.3-0.1 0.6 0 1 0.9l1.5 3.7l1.1-0.4l-1.4-3.5C60.1 77.2 59.3 76.6 58.1 77.1z" class="style0"/><polygon points="82.1,57.1 82.2,58.2 82.2,58.3 77.7,56.7 77.3,57.8 82.9,59.7 83.2,58.8 83,57.2" class="style0"/><path d="M83.6 33.6c-0.4-1.2-1.4-1.6-2.3-1.2c-0.5 0.2-1 0.7-1.2 1.6c-0.2 0.6-0.3 0.9-0.7 1.1 c-0.4 0.1-0.7 0-0.9-0.6c-0.1-0.3-0.2-0.8-0.1-1l-1 0.2c0 0.2 0 0.7 0.1 1.2c0.4 1.1 1.4 1.7 2.4 1.3c0.6-0.2 1.1-0.7 1.3-1.6 c0.2-0.8 0.3-1 0.6-1.1c0.3-0.1 0.7 0 0.8 0.5c0.1 0.3 0.1 0.6 0.1 0.8l1-0.2C83.8 34.4 83.8 34 83.6 33.6z" class="style0"/><path d="M76.6 68c-0.7-0.6-1.6-0.9-2.1-0.2c-0.4 0.5-0.3 1.3 0.6 2.1c0.6 0.5 1.6 0.9 2.1 0.3 C77.7 69.5 77.3 68.6 76.6 68z M76.8 69.7c-0.2 0.2-0.6 0-1.2-0.5c-0.6-0.5-0.8-0.8-0.7-1c0.2-0.2 0.6 0 1.2 0.5 C76.7 69.1 76.9 69.5 76.8 69.7z" class="style0"/><polygon points="49,79.3 49.1,80.3 50.7,80.1 50.9,81.8 49.5,82 49.6,82.9 51,82.8 51.2,84.2 49.7,84.3 49.9,85.4 52.5,85 51.7,78.9" class="style0"/><path d="M23.6 74.7c1.1-1.3 1.4-2.8 0.2-3.8c-0.3-0.3-0.6-0.4-0.8-0.5l-0.6 0.8c0.1 0.1 0.3 0.2 0.5 0.3 c0.6 0.5 0.6 1.3-0.3 2.4c-1 1.2-1.8 1.2-2.3 0.8c-0.2-0.2-0.3-0.3-0.3-0.5l-0.8 0.6c0 0.1 0.2 0.4 0.5 0.7 C20.6 76.3 22.1 76.5 23.6 74.7z" class="style0"/><path d="M79.6 60.1c-1.4-0.7-2.9-0.9-3.5 0.3c-0.4 0.9 0.1 2 2 2.9c1.3 0.6 2.8 1 3.4-0.2 C82.1 61.9 81.1 60.8 79.6 60.1z M80.6 62.6c-0.2 0.3-0.9 0.1-2-0.4c-1.2-0.6-1.8-1-1.6-1.3c0.2-0.4 0.8-0.2 2.1 0.4 C80.3 61.8 80.8 62.2 80.6 62.6z" class="style0"/><path d="M77.8 63.7c-1.3-0.8-2.8-1.2-3.5-0.1c-0.5 0.8-0.1 2 1.7 3.1c1.2 0.7 2.7 1.3 3.4 0.2 C80.1 65.8 79.2 64.6 77.8 63.7z M78.6 66.3c-0.2 0.3-0.9 0-2-0.6c-1.2-0.7-1.6-1.2-1.4-1.5c0.2-0.3 0.8-0.2 2 0.6 C78.3 65.5 78.8 66 78.6 66.3z" class="style0"/><path d="M34.2 78.7c-0.4 1.2-0.7 2.1-0.9 2.6l0 0c0.1-0.6 0.1-1.4 0.1-2l0-2.5l-1-0.4l-2.2 5.7l1 0.4l0.5-1.3 c0.4-1.1 0.7-2.1 0.9-2.7l0 0c0 0.6 0 1.4 0 1.9l0 2.6l1 0.4l2.2-5.7l-1-0.4L34.2 78.7z" class="style0"/><path d="M38.9 78.6l-0.6 1.3l-1.1-0.3l0.1-1.4L36.2 78l-0.3 6.2l1.4 0.3l2.8-5.6L38.9 78.6z M37.4 82 c-0.1 0.3-0.4 0.9-0.5 1.3l0 0c0-0.4 0.1-1 0.1-1.4l0.1-1.3l0.8 0.2L37.4 82z" class="style0"/><path d="M29.2 76.8c0.2-0.4 0.6-0.5 1.1-0.2c0.3 0.2 0.6 0.4 0.8 0.7l0.6-0.8c-0.1-0.2-0.5-0.5-0.9-0.8 c-1.1-0.6-2.1-0.3-2.7 0.7c-0.3 0.6-0.3 1.3 0.2 2.1c0.4 0.7 0.5 0.9 0.3 1.2c-0.2 0.3-0.5 0.4-1 0.2c-0.3-0.2-0.5-0.4-0.6-0.5 l-0.7 0.8c0.1 0.2 0.4 0.5 0.8 0.6c1.1 0.6 2.1 0.2 2.6-0.7c0.3-0.5 0.3-1.2-0.2-2.1C29.1 77.5 29 77.2 29.2 76.8z" class="style0"/><path d="M27.9 74.1l-1 1L26 74.5l0.6-1.3l-1-0.7l-2.5 5.7l1.2 0.8l4.6-4.3L27.9 74.1z M25.4 76.7 c-0.3 0.3-0.7 0.7-1 1l0 0c0.2-0.4 0.5-0.9 0.6-1.3l0.6-1.2l0.7 0.5L25.4 76.7z" class="style0"/><path d="M42.1 81.6l-0.2 0c-0.4 0-0.6-0.3-0.6-1c0-0.7-0.1-1.3-0.1-1.5L40 78.9c0.1 0.2 0.2 1 0.2 1.7 c0 0.7 0.2 1.1 0.6 1.3l0 0c-0.6 0.2-1 0.8-1.1 1.4c-0.1 0.5 0 0.9 0.3 1.3c0.3 0.4 0.9 0.6 1.6 0.6c0.5 0.1 0.9 0.1 1.3 0l0.7-6 l-1.2-0.1L42.1 81.6z M41.8 84.4c-0.1 0-0.2 0-0.3 0c-0.5-0.1-0.7-0.5-0.6-1c0.1-0.5 0.4-0.9 0.9-0.9l0.2 0L41.8 84.4z" class="style0"/><polygon points="46.4,79.4 45.2,79.4 45.1,84.4 44,84.4 44,85.5 47.4,85.6 47.4,84.5 46.3,84.4" class="style0"/></g><g><polygon points="10.8,44.8 9.8,42.8 8.7,44.8 6.5,45.2 8.1,46.8 7.8,49 9.8,48 11.8,49 11.4,46.8 13,45.2" class="style0"/><polygon points="85.3,45.2 83,44.8 82,42.8 81,44.8 78.8,45.2 80.4,46.8 80,49 82,48 84,49 83.7,46.8" class="style0"/></g><path d="M46 15.7c16.8 0 30.4 13.6 30.4 30.3c0 16.7-13.6 30.3-30.4 30.3c-16.8 0-30.4-13.6-30.4-30.3 C15.6 29.3 29.2 15.7 46 15.7L46 15.7z M46 14.7c-8.4 0-16.2 3.3-22.1 9.2c-5.9 5.9-9.2 13.8-9.2 22.1s3.3 16.2 9.2 22.1 c5.9 5.9 13.8 9.2 22.1 9.2s16.2-3.3 22.1-9.2c5.9-5.9 9.2-13.8 9.2-22.1s-3.3-16.2-9.2-22.1C62.2 18 54.4 14.7 46 14.7L46 14.7z" class="style0"/></g><g><g><path d="M46 4.3C69.1 4.3 87.8 23 87.8 46S69.1 87.7 46 87.7C22.9 87.7 4.2 69 4.2 46S22.9 4.3 46 4.3 M46 3 C34.5 3 23.7 7.5 15.5 15.6C7.4 23.7 2.9 34.5 2.9 46s4.5 22.3 12.6 30.4C23.7 84.5 34.5 89 46 89c11.5 0 22.3-4.5 30.5-12.6 c8.1-8.1 12.6-18.9 12.6-30.4s-4.5-22.3-12.6-30.4C68.3 7.5 57.5 3 46 3L46 3z"/><path d="M46 1.2c24.8 0 44.9 20.1 44.9 44.8c0 24.8-20.1 44.8-44.9 44.8S1.1 70.8 1.1 46C1.1 21.2 21.2 1.2 46 1.2 M46 0.7 c-12.1 0-23.5 4.7-32.1 13.3c-4.2 4.2-7.4 9-9.7 14.4C1.8 33.9 0.6 39.9 0.6 46c0 6.1 1.2 12.1 3.6 17.7 c2.3 5.4 5.6 10.2 9.7 14.4c8.6 8.6 20 13.3 32.1 13.3s23.5-4.7 32.1-13.3c4.2-4.2 7.4-9 9.7-14.4c2.4-5.6 3.6-11.5 3.6-17.7 c0-6.1-1.2-12.1-3.6-17.7c-2.3-5.4-5.6-10.2-9.7-14.4C69.5 5.4 58.1 0.7 46 0.7L46 0.7z"/><g><polygon points="46,71.7 49,73.3 48.5,70 50.9,67.6 47.5,67 46,64 44.5,67 41.2,67.6 43.5,70 43,73.3"/><g><polygon points="58,67.7 59.9,68.7 59.5,66.6 61,65.1 58.9,64.7 58,62.9 57,64.7 54.9,65.1 56.4,66.6 56.1,68.7"/><polygon points="34.1,67.7 35.9,68.7 35.6,66.6 37.1,65.1 35,64.7 34.1,62.9 33.1,64.7 31,65.1 32.5,66.6 32.2,68.7"/></g></g><g><polygon points="46,26.2 49,27.7 48.5,24.4 50.9,22 47.5,21.5 46,18.5 44.5,21.5 41.2,22 43.5,24.4 43,27.7"/><g><polygon points="58,28 59.9,28.9 59.5,26.8 61,25.3 58.9,25 58,23.1 57,25 54.9,25.3 56.4,26.8 56.1,28.9"/><polygon points="34.1,28 35.9,28.9 35.6,26.8 37.1,25.3 35,25 34.1,23.1 33.1,25 31,25.3 32.5,26.8 32.2,28.9"/></g></g><g><path d="M22.3 52.7c1.3 0.7 3.4 1.4 5.5 1.4c2.3 0 3.5-1 3.5-2.4c0-1.4-1-2.2-3.7-3.1c-3.7-1.3-6.1-3.3-6.1-6.6 c0-3.8 3.2-6.6 8.4-6.6c2.5 0 4.3 0.5 5.6 1.1l-1.1 4c-0.9-0.4-2.5-1-4.6-1c-2.2 0-3.2 1-3.2 2.1c0 1.4 1.2 2 4.1 3.1 c3.9 1.4 5.7 3.5 5.7 6.6c0 3.7-2.8 6.9-8.9 6.9c-2.5 0-5-0.7-6.3-1.4L22.3 52.7z"/><path d="M40 52.7c1.3 0.7 3.4 1.4 5.5 1.4c2.3 0 3.5-1 3.5-2.4c0-1.4-1-2.2-3.7-3.1c-3.7-1.3-6.1-3.3-6.1-6.6 c0-3.8 3.2-6.6 8.4-6.6c2.5 0 4.3 0.5 5.6 1.1l-1.1 4c-0.9-0.4-2.5-1-4.6-1c-2.2 0-3.2 1-3.2 2.1c0 1.4 1.2 2 4.1 3.1 c3.9 1.4 5.7 3.5 5.7 6.6c0 3.7-2.8 6.9-8.9 6.9c-2.5 0-5-0.7-6.3-1.4L40 52.7z"/><path d="M57.5 35.8h5v17.9h8.8v4.2H57.5V35.8z"/></g></g><g><path d="M33.9 14.9c1.1-0.4 1.3-1.4 0.8-2.9l-1.4-3.5L32.2 9l1.5 3.7c0.3 0.9 0.2 1.2-0.1 1.3c-0.3 0.1-0.6 0-1-0.9l-1.5-3.7 L30 9.8l1.4 3.5C31.9 14.8 32.7 15.4 33.9 14.9z"/><path d="M19.4 23.1c0.7 0.6 1.6 0.9 2.1 0.2c0.4-0.5 0.3-1.3-0.6-2.1c-0.6-0.5-1.6-0.9-2.1-0.3C18.3 21.6 18.7 22.5 19.4 23.1z M19.2 21.4c0.2-0.2 0.6 0 1.2 0.5c0.6 0.5 0.8 0.8 0.7 1c-0.2 0.2-0.6 0-1.2-0.5C19.3 22 19.1 21.6 19.2 21.4z"/><polygon points="19.7,25.6 17.1,19.2 16.7,19.7 19.3,26.1"/><polygon points="28.6,17.4 28.1,16.6 26.7,17.5 25.8,16.1 27,15.3 26.4,14.5 25.3,15.3 24.5,14.1 25.7,13.3 25.1,12.4 22.9,13.9 26.3,19"/><path d="M31 16.2c0.4-0.2 0.6-0.4 0.7-0.6l-0.6-0.8c-0.1 0.1-0.3 0.3-0.5 0.4c-0.6 0.3-1.4 0.1-2.1-1.2c-0.7-1.3-0.5-2.1 0.1-2.5 c0.2-0.1 0.4-0.1 0.5-0.2l-0.3-1c-0.1 0-0.4 0-0.8 0.2c-1.1 0.6-1.8 2-0.7 4C28.4 16.2 29.6 16.9 31 16.2z"/><polygon points="18.5,72.8 22.2,69.4 21.3,68.5 17.7,72 16.9,71.2 16.1,71.9 18.4,74.4 19.2,73.6"/><path d="M15.4 24c0.7 0.6 1.6 0.9 2.1 0.2c0.4-0.5 0.3-1.3-0.6-2.1c-0.6-0.5-1.6-0.9-2.1-0.3C14.3 22.5 14.7 23.4 15.4 24z M15.3 22.3c0.2-0.2 0.6 0 1.2 0.5c0.6 0.5 0.8 0.8 0.7 1c-0.2 0.2-0.6 0-1.2-0.5C15.4 22.9 15.1 22.5 15.3 22.3z"/><rect x="14.4" y="68.1" transform="matrix(0.7814 -0.624 0.624 0.7814 -39.0708 25.9555)" width="6.1" height="1.2"/><path d="M16.3 61.2L15 61.8c-1.1 0.5-1.9 1-2.5 1.3l0 0c0.4-0.4 1-1 1.4-1.4l1.7-1.9l-0.5-1l-5.5 2.7l0.5 0.9l1.2-0.6 c1-0.5 1.9-1 2.5-1.3l0 0c-0.4 0.4-1 1-1.3 1.4l-1.8 1.9l0.5 1l5.5-2.7L16.3 61.2z"/><path d="M10.7 59.7c0.5-0.2 1-0.7 1.2-1.6c0.2-0.6 0.3-0.9 0.7-1.1c0.4-0.1 0.7 0 0.9 0.6c0.1 0.3 0.2 0.8 0.1 1l1-0.2 c0-0.2 0-0.7-0.1-1.2c-0.4-1.1-1.4-1.7-2.4-1.3c-0.6 0.2-1.1 0.7-1.3 1.6c-0.2 0.8-0.3 1-0.6 1.1c-0.3 0.1-0.7 0-0.8-0.5 c-0.1-0.3-0.1-0.6-0.1-0.8l-1 0.2c0 0.2 0 0.6 0.1 1C8.8 59.6 9.8 60 10.7 59.7z"/><path d="M18.1 64.2c-0.6-1-1.9-1.1-3.8 0.1c-1.2 0.8-2.3 2-1.5 3.2c0.7 1.1 2.3 0.9 3.7 0C17.9 66.7 18.9 65.4 18.1 64.2z M13.7 67.1c-0.3-0.5 0.4-1.1 1.3-1.7c1-0.7 1.9-1 2.2-0.6c0.3 0.4-0.2 1-1.4 1.8C14.8 67.3 14 67.5 13.7 67.1z"/><polygon points="10,34.9 9.8,33.8 9.8,33.7 14.4,35.3 14.8,34.2 9.2,32.3 8.8,33.2 9,34.8"/><path d="M12.5 31.9c1.4 0.7 2.9 0.9 3.5-0.3c0.4-0.9-0.1-2-2-2.9c-1.3-0.6-2.8-1-3.4 0.2C10 30.1 10.9 31.2 12.5 31.9z M11.4 29.4 c0.2-0.3 0.9-0.1 2 0.4c1.2 0.6 1.8 1 1.6 1.3c-0.2 0.4-0.8 0.2-2.1-0.4C11.7 30.2 11.2 29.8 11.4 29.4z"/><path d="M14.3 28.3c1.3 0.8 2.8 1.2 3.5 0.1c0.5-0.8 0.1-2-1.7-3.1c-1.2-0.7-2.7-1.3-3.4-0.2C12 26.2 12.8 27.4 14.3 28.3z M13.5 25.7c0.2-0.3 0.9 0 2 0.6c1.2 0.7 1.6 1.2 1.4 1.5c-0.2 0.3-0.8 0.2-2-0.6C13.7 26.5 13.3 26 13.5 25.7z"/><path d="M22.7 18.5c0.6-0.1 1-0.1 1.3 0.3c0.3 0.3 0.2 0.7-0.2 1.1c-0.3 0.2-0.7 0.4-0.9 0.5l0.5 0.9c0.2 0 0.7-0.2 1.1-0.6 c0.9-0.8 1.1-1.9 0.4-2.7c-0.4-0.5-1-0.8-2-0.6c-0.8 0.1-1 0.1-1.3-0.2c-0.2-0.3-0.2-0.6 0.2-1c0.3-0.2 0.5-0.3 0.7-0.3l-0.5-0.9 c-0.2 0-0.6 0.2-0.9 0.5c-1 0.8-1 1.9-0.3 2.6C21 18.4 21.7 18.6 22.7 18.5z"/><path d="M64.1 17.9l1-1l0.9 0.6l-0.6 1.3l1 0.7l2.5-5.7l-1.2-0.8l-4.6 4.3L64.1 17.9z M66.7 15.3c0.3-0.3 0.7-0.7 1-1l0 0 c-0.2 0.4-0.5 0.9-0.6 1.3l-0.6 1.2l-0.7-0.5L66.7 15.3z"/><path d="M37.5 13.7l-0.6-2.4l0.2 0c0.4-0.1 0.6 0.1 0.9 0.8c0.3 0.6 0.5 1.2 0.7 1.4l1.2-0.3c-0.2-0.2-0.5-0.9-0.8-1.5 c-0.3-0.6-0.6-0.9-1-1l0 0c0.5-0.4 0.7-1.1 0.5-1.7c-0.1-0.5-0.3-0.9-0.8-1.1c-0.5-0.2-1.1-0.2-1.7 0c-0.4 0.1-0.9 0.3-1.2 0.4 l1.5 5.9L37.5 13.7z M36.5 8.6c0.5-0.1 0.8 0.2 0.9 0.7c0.1 0.5-0.1 1-0.6 1.1l-0.2 0.1l-0.4-1.8C36.3 8.6 36.4 8.6 36.5 8.6z"/><rect x="71.5" y="22.7" transform="matrix(-0.7814 0.6241 -0.6241 -0.7814 147.2721 -5.0849)" width="6.1" height="1.2"/><polygon points="73.5,19.2 69.9,22.6 70.7,23.5 74.4,20 75.1,20.8 75.9,20.1 73.6,17.6 72.8,18.4"/><path d="M75.8 30.8l1.2-0.6c1.1-0.5 1.9-1 2.5-1.3l0 0c-0.4 0.4-1 1-1.4 1.4l-1.7 1.9l0.5 1l5.5-2.7L82 29.6l-1.2 0.6 c-1 0.5-1.9 1-2.5 1.3l0 0c0.4-0.4 1-1 1.3-1.4l1.8-1.9l-0.5-1l-5.5 2.7L75.8 30.8z"/><path d="M73.9 27.8c0.6 1 1.9 1.1 3.8-0.1c1.2-0.8 2.3-2 1.5-3.2c-0.7-1.1-2.3-0.9-3.7 0C74.1 25.3 73.2 26.6 73.9 27.8z M78.3 24.9c0.3 0.5-0.4 1.1-1.3 1.7c-1 0.7-1.9 1-2.2 0.6c-0.3-0.4 0.2-1 1.4-1.8C77.3 24.7 78.1 24.5 78.3 24.9z"/><path d="M68.4 17.3c-1.1 1.3-1.4 2.8-0.2 3.8c0.3 0.3 0.6 0.4 0.8 0.5l0.6-0.8c-0.1-0.1-0.3-0.2-0.5-0.3c-0.6-0.5-0.6-1.3 0.3-2.4 c1-1.2 1.8-1.2 2.3-0.8c0.2 0.2 0.3 0.3 0.3 0.5l0.8-0.6c0-0.1-0.2-0.4-0.5-0.7C71.5 15.7 69.9 15.5 68.4 17.3z"/><path d="M49.9 10.4l0.2 0c0.4 0 0.6 0.3 0.6 1c0 0.7 0.1 1.3 0.1 1.5l1.2 0.1c-0.1-0.2-0.2-1-0.2-1.7c0-0.7-0.2-1.1-0.6-1.3l0 0 c0.6-0.2 1-0.8 1.1-1.4c0.1-0.5 0-0.9-0.3-1.3c-0.3-0.4-0.9-0.6-1.6-0.6c-0.5-0.1-0.9-0.1-1.3 0l-0.7 6l1.2 0.1L49.9 10.4z M50.2 7.6c0.1 0 0.2 0 0.3 0c0.5 0.1 0.7 0.5 0.6 1c-0.1 0.5-0.4 0.9-0.9 0.9l-0.2 0L50.2 7.6z"/><polygon points="45.7,12.6 46.9,12.6 46.9,7.6 48,7.6 48.1,6.5 44.7,6.4 44.7,7.5 45.8,7.6"/><polygon points="43.1,12.7 42.9,11.7 41.4,11.9 41.2,10.2 42.5,10 42.4,9.1 41,9.2 40.8,7.8 42.3,7.7 42.2,6.6 39.5,7 40.3,13.1"/><path d="M62.8 15.2c-0.2 0.4-0.6 0.5-1.1 0.2c-0.3-0.2-0.6-0.4-0.8-0.7l-0.6 0.8c0.1 0.2 0.5 0.5 0.9 0.8c1.1 0.6 2.1 0.3 2.7-0.7 c0.3-0.6 0.3-1.3-0.2-2.1c-0.4-0.7-0.5-0.9-0.3-1.2c0.2-0.3 0.5-0.4 1-0.2c0.3 0.2 0.5 0.4 0.6 0.5l0.7-0.8 c-0.1-0.2-0.4-0.5-0.8-0.6c-1.1-0.6-2.1-0.2-2.6 0.7c-0.3 0.5-0.3 1.2 0.2 2.1C62.9 14.5 63 14.8 62.8 15.2z"/><path d="M53.2 13.4l0.6-1.3l1.1 0.3l-0.1 1.4l1.1 0.3l0.3-6.2l-1.4-0.3L52 13.1L53.2 13.4z M54.6 10c0.1-0.3 0.4-0.9 0.5-1.3l0 0 c0 0.4-0.1 1-0.1 1.4L55 11.4l-0.8-0.2L54.6 10z"/><path d="M57.8 13.3c0.4-1.2 0.7-2.1 0.9-2.6l0 0c-0.1 0.6-0.1 1.4-0.1 2l0 2.5l1 0.4L62 9.8l-1-0.4l-0.5 1.3 c-0.4 1.1-0.7 2.1-0.9 2.7l0 0c0-0.6 0-1.4 0-1.9l0-2.6l-1-0.4l-2.2 5.7l1 0.4L57.8 13.3z"/><polygon points="72.4,66.4 75,72.8 75.4,72.3 72.8,65.9"/><path d="M72.6 68.9c-0.7-0.6-1.6-0.9-2.1-0.2c-0.4 0.5-0.3 1.3 0.6 2.1c0.6 0.5 1.6 0.9 2.1 0.3C73.8 70.4 73.4 69.5 72.6 68.9z M72.8 70.6c-0.2 0.2-0.6 0-1.2-0.5c-0.6-0.5-0.8-0.8-0.7-1c0.2-0.2 0.6 0 1.2 0.5C72.7 70 73 70.4 72.8 70.6z"/><path d="M61 75.8c-0.4 0.2-0.6 0.4-0.7 0.6l0.6 0.8c0.1-0.1 0.3-0.3 0.5-0.3c0.6-0.3 1.4-0.1 2.1 1.2c0.7 1.3 0.5 2.1-0.1 2.5 c-0.2 0.1-0.4 0.1-0.5 0.2l0.3 1c0.1 0 0.4 0 0.8-0.2c1.1-0.6 1.8-2 0.7-4C63.7 75.8 62.4 75.1 61 75.8z"/><path d="M69.4 73.5c-0.6 0.1-1 0.1-1.3-0.3c-0.3-0.3-0.2-0.7 0.2-1.1c0.3-0.2 0.7-0.4 0.9-0.5l-0.5-0.9c-0.2 0-0.7 0.2-1.1 0.6 c-0.9 0.8-1.1 1.9-0.4 2.7c0.4 0.5 1 0.8 2 0.6c0.8-0.1 1-0.1 1.3 0.2c0.2 0.3 0.2 0.6-0.2 1c-0.3 0.2-0.5 0.3-0.7 0.3l0.5 0.9 c0.2 0 0.6-0.2 0.9-0.5c1-0.8 1-1.9 0.3-2.6C71 73.6 70.3 73.4 69.4 73.5z"/><polygon points="63.4,74.6 64,75.4 65.3,74.5 66.2,75.9 65.1,76.7 65.6,77.5 66.8,76.7 67.6,77.9 66.3,78.7 66.9,79.6 69.1,78.1 65.7,73"/><path d="M54.6 78.3l0.6 2.4l-0.2 0c-0.4 0.1-0.6-0.1-0.9-0.8c-0.3-0.6-0.5-1.2-0.7-1.4l-1.2 0.3c0.2 0.2 0.5 0.9 0.8 1.5 c0.3 0.6 0.6 0.9 1 1l0 0c-0.5 0.4-0.7 1.1-0.5 1.7c0.1 0.5 0.3 0.9 0.8 1.1c0.5 0.2 1.1 0.2 1.7 0c0.4-0.1 0.9-0.3 1.2-0.4 L55.7 78L54.6 78.3z M55.5 83.4c-0.5 0.1-0.8-0.2-0.9-0.7c-0.1-0.5 0.1-1 0.6-1.1l0.2-0.1l0.4 1.8C55.8 83.4 55.7 83.4 55.5 83.4z "/><path d="M58.1 77.1c-1.1 0.4-1.3 1.4-0.8 2.9l1.4 3.5l1.1-0.4l-1.5-3.7c-0.3-0.9-0.2-1.2 0.1-1.3c0.3-0.1 0.6 0 1 0.9l1.5 3.7 l1.1-0.4l-1.4-3.5C60.1 77.2 59.3 76.6 58.1 77.1z"/><polygon points="82.1,57.1 82.2,58.2 82.2,58.3 77.7,56.7 77.3,57.8 82.9,59.7 83.2,58.8 83,57.2"/><path d="M83.6 33.6c-0.4-1.2-1.4-1.6-2.3-1.2c-0.5 0.2-1 0.7-1.2 1.6c-0.2 0.6-0.3 0.9-0.7 1.1c-0.4 0.1-0.7 0-0.9-0.6 c-0.1-0.3-0.2-0.8-0.1-1l-1 0.2c0 0.2 0 0.7 0.1 1.2c0.4 1.1 1.4 1.7 2.4 1.3c0.6-0.2 1.1-0.7 1.3-1.6c0.2-0.8 0.3-1 0.6-1.1 c0.3-0.1 0.7 0 0.8 0.5c0.1 0.3 0.1 0.6 0.1 0.8l1-0.2C83.8 34.4 83.8 34 83.6 33.6z"/><path d="M76.6 68c-0.7-0.6-1.6-0.9-2.1-0.2c-0.4 0.5-0.3 1.3 0.6 2.1c0.6 0.5 1.6 0.9 2.1 0.3C77.7 69.5 77.3 68.6 76.6 68z M76.8 69.7c-0.2 0.2-0.6 0-1.2-0.5c-0.6-0.5-0.8-0.8-0.7-1c0.2-0.2 0.6 0 1.2 0.5C76.7 69.1 76.9 69.5 76.8 69.7z"/><polygon points="49,79.3 49.1,80.3 50.7,80.1 50.9,81.8 49.5,82 49.6,82.9 51,82.8 51.2,84.2 49.7,84.3 49.9,85.4 52.5,85 51.7,78.9"/><path d="M23.6 74.7c1.1-1.3 1.4-2.8 0.2-3.8c-0.3-0.3-0.6-0.4-0.8-0.5l-0.6 0.8c0.1 0.1 0.3 0.2 0.5 0.3c0.6 0.5 0.6 1.3-0.3 2.4 c-1 1.2-1.8 1.2-2.3 0.8c-0.2-0.2-0.3-0.3-0.3-0.5l-0.8 0.6c0 0.1 0.2 0.4 0.5 0.7C20.6 76.3 22.1 76.5 23.6 74.7z"/><path d="M79.6 60.1c-1.4-0.7-2.9-0.9-3.5 0.3c-0.4 0.9 0.1 2 2 2.9c1.3 0.6 2.8 1 3.4-0.2C82.1 61.9 81.1 60.8 79.6 60.1z M80.6 62.6c-0.2 0.3-0.9 0.1-2-0.4c-1.2-0.6-1.8-1-1.6-1.3c0.2-0.4 0.8-0.2 2.1 0.4C80.3 61.8 80.8 62.2 80.6 62.6z"/><path d="M77.8 63.7c-1.3-0.8-2.8-1.2-3.5-0.1c-0.5 0.8-0.1 2 1.7 3.1c1.2 0.7 2.7 1.3 3.4 0.2C80.1 65.8 79.2 64.6 77.8 63.7z M78.6 66.3c-0.2 0.3-0.9 0-2-0.6c-1.2-0.7-1.6-1.2-1.4-1.5c0.2-0.3 0.8-0.2 2 0.6C78.3 65.5 78.8 66 78.6 66.3z"/><path d="M34.2 78.7c-0.4 1.2-0.7 2.1-0.9 2.6l0 0c0.1-0.6 0.1-1.4 0.1-2l0-2.5l-1-0.4l-2.2 5.7l1 0.4l0.5-1.3 c0.4-1.1 0.7-2.1 0.9-2.7l0 0c0 0.6 0 1.4 0 1.9l0 2.6l1 0.4l2.2-5.7l-1-0.4L34.2 78.7z"/><path d="M38.9 78.6l-0.6 1.3l-1.1-0.3l0.1-1.4L36.2 78l-0.3 6.2l1.4 0.3l2.8-5.6L38.9 78.6z M37.4 82c-0.1 0.3-0.4 0.9-0.5 1.3 l0 0c0-0.4 0.1-1 0.1-1.4l0.1-1.3l0.8 0.2L37.4 82z"/><path d="M29.2 76.8c0.2-0.4 0.6-0.5 1.1-0.2c0.3 0.2 0.6 0.4 0.8 0.7l0.6-0.8c-0.1-0.2-0.5-0.5-0.9-0.8c-1.1-0.6-2.1-0.3-2.7 0.7 c-0.3 0.6-0.3 1.3 0.2 2.1c0.4 0.7 0.5 0.9 0.3 1.2c-0.2 0.3-0.5 0.4-1 0.2c-0.3-0.2-0.5-0.4-0.6-0.5l-0.7 0.8 c0.1 0.2 0.4 0.5 0.8 0.6c1.1 0.6 2.1 0.2 2.6-0.7c0.3-0.5 0.3-1.2-0.2-2.1C29.1 77.5 29 77.2 29.2 76.8z"/><path d="M27.9 74.1l-1 1L26 74.5l0.6-1.3l-1-0.7l-2.5 5.7l1.2 0.8l4.6-4.3L27.9 74.1z M25.4 76.7c-0.3 0.3-0.7 0.7-1 1l0 0 c0.2-0.4 0.5-0.9 0.6-1.3l0.6-1.2l0.7 0.5L25.4 76.7z"/><path d="M42.1 81.6l-0.2 0c-0.4 0-0.6-0.3-0.6-1c0-0.7-0.1-1.3-0.1-1.5L40 78.9c0.1 0.2 0.2 1 0.2 1.7c0 0.7 0.2 1.1 0.6 1.3l0 0 c-0.6 0.2-1 0.8-1.1 1.4c-0.1 0.5 0 0.9 0.3 1.3c0.3 0.4 0.9 0.6 1.6 0.6c0.5 0.1 0.9 0.1 1.3 0l0.7-6l-1.2-0.1L42.1 81.6z M41.8 84.4c-0.1 0-0.2 0-0.3 0c-0.5-0.1-0.7-0.5-0.6-1c0.1-0.5 0.4-0.9 0.9-0.9l0.2 0L41.8 84.4z"/><polygon points="46.4,79.4 45.2,79.4 45.1,84.4 44,84.4 44,85.5 47.4,85.6 47.4,84.5 46.3,84.4"/></g><g><polygon points="10.8,44.8 9.8,42.8 8.7,44.8 6.5,45.2 8.1,46.8 7.8,49 9.8,48 11.8,49 11.4,46.8 13,45.2"/><polygon points="85.3,45.2 83,44.8 82,42.8 81,44.8 78.8,45.2 80.4,46.8 80,49 82,48 84,49 83.7,46.8"/></g><path d="M46 15.7c16.8 0 30.4 13.6 30.4 30.3c0 16.7-13.6 30.3-30.4 30.3c-16.8 0-30.4-13.6-30.4-30.3C15.6 29.3 29.2 15.7 46 15.7 L46 15.7z M46 14.7c-8.4 0-16.2 3.3-22.1 9.2c-5.9 5.9-9.2 13.8-9.2 22.1s3.3 16.2 9.2 22.1c5.9 5.9 13.8 9.2 22.1 9.2 s16.2-3.3 22.1-9.2c5.9-5.9 9.2-13.8 9.2-22.1s-3.3-16.2-9.2-22.1C62.2 18 54.4 14.7 46 14.7L46 14.7z"/></g><g><g><linearGradient gradientUnits="userSpaceOnUse" x1="19.5" y1="9.3" x2="72.7" y2="82.9"><stop offset="0" class="style1"/><stop offset="0.3427" class="style2"/><stop offset="0.691" class="style3"/><stop offset="1" class="style4"/></linearGradient><path d="M46 4.3C69.1 4.3 87.8 23 87.8 46S69.1 87.7 46 87.7C22.9 87.7 4.2 69 4.2 46S22.9 4.3 46 4.3 M46 3C34.5 3 23.7 7.5 15.5 15.6C7.4 23.7 2.9 34.5 2.9 46s4.5 22.3 12.6 30.4C23.7 84.5 34.5 89 46 89 c11.5 0 22.3-4.5 30.5-12.6c8.1-8.1 12.6-18.9 12.6-30.4s-4.5-22.3-12.6-30.4C68.3 7.5 57.5 3 46 3L46 3z" class="style5"/><linearGradient gradientUnits="userSpaceOnUse" x1="19.5" y1="9.3" x2="72.7" y2="82.9"><stop offset="0" class="style1"/><stop offset="0.3427" class="style2"/><stop offset="0.691" class="style3"/><stop offset="1" class="style4"/></linearGradient><path d="M46 1.2c24.8 0 44.9 20.1 44.9 44.8c0 24.8-20.1 44.8-44.9 44.8S1.1 70.8 1.1 46 C1.1 21.2 21.2 1.2 46 1.2 M46 0.7c-12.1 0-23.5 4.7-32.1 13.3c-4.2 4.2-7.4 9-9.7 14.4C1.8 33.9 0.6 39.9 0.6 46 c0 6.1 1.2 12.1 3.6 17.7c2.3 5.4 5.6 10.2 9.7 14.4c8.6 8.6 20 13.3 32.1 13.3s23.5-4.7 32.1-13.3c4.2-4.2 7.4-9 9.7-14.4 c2.4-5.6 3.6-11.5 3.6-17.7c0-6.1-1.2-12.1-3.6-17.7c-2.3-5.4-5.6-10.2-9.7-14.4C69.5 5.4 58.1 0.7 46 0.7L46 0.7z" class="style6"/><g><linearGradient gradientUnits="userSpaceOnUse" x1="9.6" y1="26.7" x2="58.3" y2="83.8"><stop offset="0" class="style1"/><stop offset="0.3427" class="style2"/><stop offset="0.691" class="style3"/><stop offset="1" class="style4"/></linearGradient><polygon points="46,71.7 49,73.3 48.5,70 50.9,67.6 47.5,67 46,64 44.5,67 41.2,67.6 43.5,70 43,73.3" class="style7"/><g><linearGradient gradientUnits="userSpaceOnUse" x1="18.1" y1="19.4" x2="66.8" y2="76.5"><stop offset="0" class="style1"/><stop offset="0.3427" class="style2"/><stop offset="0.691" class="style3"/><stop offset="1" class="style4"/></linearGradient><polygon points="58,67.7 59.9,68.7 59.5,66.6 61,65.1 58.9,64.7 58,62.9 57,64.7 54.9,65.1 56.4,66.6 56.1,68.7" class="style8"/><linearGradient gradientUnits="userSpaceOnUse" x1="4.2" y1="31.2" x2="53" y2="88.3"><stop offset="0" class="style1"/><stop offset="0.3427" class="style2"/><stop offset="0.691" class="style3"/><stop offset="1" class="style4"/></linearGradient><polygon points="34.1,67.7 35.9,68.7 35.6,66.6 37.1,65.1 35,64.7 34.1,62.9 33.1,64.7 31,65.1 32.5,66.6 32.2,68.7" class="style9"/></g></g><g><linearGradient gradientUnits="userSpaceOnUse" x1="32.1" y1="7.5" x2="80.8" y2="64.6"><stop offset="0" class="style1"/><stop offset="0.3427" class="style2"/><stop offset="0.691" class="style3"/><stop offset="1" class="style4"/></linearGradient><polygon points="46,26.2 49,27.7 48.5,24.4 50.9,22 47.5,21.5 46,18.5 44.5,21.5 41.2,22 43.5,24.4 43,27.7" class="style10"/><g><linearGradient gradientUnits="userSpaceOnUse" x1="37.7" y1="2.7" x2="86.4" y2="59.8"><stop offset="0" class="style1"/><stop offset="0.3427" class="style2"/><stop offset="0.691" class="style3"/><stop offset="1" class="style4"/></linearGradient><polygon points="58,28 59.9,28.9 59.5,26.8 61,25.3 58.9,25 58,23.1 57,25 54.9,25.3 56.4,26.8 56.1,28.9" class="style11"/><linearGradient gradientUnits="userSpaceOnUse" x1="23.8" y1="14.5" x2="72.6" y2="71.6"><stop offset="0" class="style1"/><stop offset="0.3427" class="style2"/><stop offset="0.691" class="style3"/><stop offset="1" class="style4"/></linearGradient><polygon points="34.1,28 35.9,28.9 35.6,26.8 37.1,25.3 35,25 34.1,23.1 33.1,25 31,25.3 32.5,26.8 32.2,28.9" class="style12"/></g></g><g><linearGradient gradientUnits="userSpaceOnUse" x1="10.6" y1="25.8" x2="59.3" y2="82.9"><stop offset="0" class="style1"/><stop offset="0.3427" class="style2"/><stop offset="0.691" class="style3"/><stop offset="1" class="style4"/></linearGradient><path d="M22.3 52.7c1.3 0.7 3.4 1.4 5.5 1.4c2.3 0 3.5-1 3.5-2.4c0-1.4-1-2.2-3.7-3.1 c-3.7-1.3-6.1-3.3-6.1-6.6c0-3.8 3.2-6.6 8.4-6.6c2.5 0 4.3 0.5 5.6 1.1l-1.1 4c-0.9-0.4-2.5-1-4.6-1c-2.2 0-3.2 1-3.2 2.1 c0 1.4 1.2 2 4.1 3.1c3.9 1.4 5.7 3.5 5.7 6.6c0 3.7-2.8 6.9-8.9 6.9c-2.5 0-5-0.7-6.3-1.4L22.3 52.7z" class="style13"/><linearGradient gradientUnits="userSpaceOnUse" x1="20.8" y1="17.1" x2="69.6" y2="74.2"><stop offset="0" class="style1"/><stop offset="0.3427" class="style2"/><stop offset="0.691" class="style3"/><stop offset="1" class="style4"/></linearGradient><path d="M40 52.7c1.3 0.7 3.4 1.4 5.5 1.4c2.3 0 3.5-1 3.5-2.4c0-1.4-1-2.2-3.7-3.1 c-3.7-1.3-6.1-3.3-6.1-6.6c0-3.8 3.2-6.6 8.4-6.6c2.5 0 4.3 0.5 5.6 1.1l-1.1 4c-0.9-0.4-2.5-1-4.6-1c-2.2 0-3.2 1-3.2 2.1 c0 1.4 1.2 2 4.1 3.1c3.9 1.4 5.7 3.5 5.7 6.6c0 3.7-2.8 6.9-8.9 6.9c-2.5 0-5-0.7-6.3-1.4L40 52.7z" class="style14"/><linearGradient gradientUnits="userSpaceOnUse" x1="28.8" y1="10.2" x2="77.6" y2="67.4"><stop offset="0" class="style1"/><stop offset="0.3427" class="style2"/><stop offset="0.691" class="style3"/><stop offset="1" class="style4"/></linearGradient><path d="M57.5 35.8h5v17.9h8.8v4.2H57.5V35.8z" class="style15"/></g></g><g><linearGradient gradientUnits="userSpaceOnUse" x1="29.7" y1="7.8" x2="79" y2="71.4"><stop offset="0" class="style1"/><stop offset="0.3427" class="style2"/><stop offset="0.691" class="style3"/><stop offset="1" class="style4"/></linearGradient><path d="M33.9 14.9c1.1-0.4 1.3-1.4 0.8-2.9l-1.4-3.5L32.2 9l1.5 3.7c0.3 0.9 0.2 1.2-0.1 1.3 c-0.3 0.1-0.6 0-1-0.9l-1.5-3.7L30 9.8l1.4 3.5C31.9 14.8 32.7 15.4 33.9 14.9z" class="style16"/><linearGradient gradientUnits="userSpaceOnUse" x1="16.8" y1="17.8" x2="66.1" y2="81.4"><stop offset="0" class="style1"/><stop offset="0.3427" class="style2"/><stop offset="0.691" class="style3"/><stop offset="1" class="style4"/></linearGradient><path d="M19.4 23.1c0.7 0.6 1.6 0.9 2.1 0.2c0.4-0.5 0.3-1.3-0.6-2.1c-0.6-0.5-1.6-0.9-2.1-0.3 C18.3 21.6 18.7 22.5 19.4 23.1z M19.2 21.4c0.2-0.2 0.6 0 1.2 0.5c0.6 0.5 0.8 0.8 0.7 1c-0.2 0.2-0.6 0-1.2-0.5 C19.3 22 19.1 21.6 19.2 21.4z" class="style17"/><linearGradient gradientUnits="userSpaceOnUse" x1="15.3" y1="19" x2="64.6" y2="82.6"><stop offset="0" class="style1"/><stop offset="0.3427" class="style2"/><stop offset="0.691" class="style3"/><stop offset="1" class="style4"/></linearGradient><polygon points="19.7,25.6 17.1,19.2 16.7,19.7 19.3,26.1" class="style18"/><linearGradient gradientUnits="userSpaceOnUse" x1="23.4" y1="12.7" x2="72.7" y2="76.3"><stop offset="0" class="style1"/><stop offset="0.3427" class="style2"/><stop offset="0.691" class="style3"/><stop offset="1" class="style4"/></linearGradient><polygon points="28.6,17.4 28.1,16.6 26.7,17.5 25.8,16.1 27,15.3 26.4,14.5 25.3,15.3 24.5,14.1 25.7,13.3 25.1,12.4 22.9,13.9 26.3,19" class="style19"/><linearGradient gradientUnits="userSpaceOnUse" x1="26.5" y1="10.3" x2="75.8" y2="73.9"><stop offset="0" class="style1"/><stop offset="0.3427" class="style2"/><stop offset="0.691" class="style3"/><stop offset="1" class="style4"/></linearGradient><path d="M31 16.2c0.4-0.2 0.6-0.4 0.7-0.6l-0.6-0.8c-0.1 0.1-0.3 0.3-0.5 0.4c-0.6 0.3-1.4 0.1-2.1-1.2 c-0.7-1.3-0.5-2.1 0.1-2.5c0.2-0.1 0.4-0.1 0.5-0.2l-0.3-1c-0.1 0-0.4 0-0.8 0.2c-1.1 0.6-1.8 2-0.7 4 C28.4 16.2 29.6 16.9 31 16.2z" class="style20"/><linearGradient gradientUnits="userSpaceOnUse" x1="-7.3" y1="36.5" x2="42" y2="100.1"><stop offset="0" class="style1"/><stop offset="0.3427" class="style2"/><stop offset="0.691" class="style3"/><stop offset="1" class="style4"/></linearGradient><polygon points="18.5,72.8 22.2,69.4 21.3,68.5 17.7,72 16.9,71.2 16.1,71.9 18.4,74.4 19.2,73.6" class="style21"/><linearGradient gradientUnits="userSpaceOnUse" x1="13.8" y1="20.1" x2="63.1" y2="83.7"><stop offset="0" class="style1"/><stop offset="0.3427" class="style2"/><stop offset="0.691" class="style3"/><stop offset="1" class="style4"/></linearGradient><path d="M15.4 24c0.7 0.6 1.6 0.9 2.1 0.2c0.4-0.5 0.3-1.3-0.6-2.1c-0.6-0.5-1.6-0.9-2.1-0.3 C14.3 22.5 14.7 23.4 15.4 24z M15.3 22.3c0.2-0.2 0.6 0 1.2 0.5c0.6 0.5 0.8 0.8 0.7 1c-0.2 0.2-0.6 0-1.2-0.5 C15.4 22.9 15.1 22.5 15.3 22.3z" class="style22"/><linearGradient gradientUnits="userSpaceOnUse" x1="-7.4" y1="36.6" x2="41.9" y2="100.2"><stop offset="0" class="style1"/><stop offset="0.3427" class="style2"/><stop offset="0.691" class="style3"/><stop offset="1" class="style4"/></linearGradient><polygon points="19.5,66.4 14.7,70.2 15.5,71.1 20.3,67.3" class="style23"/><linearGradient gradientUnits="userSpaceOnUse" x1="-6.8" y1="36.1" x2="42.5" y2="99.7"><stop offset="0" class="style1"/><stop offset="0.3427" class="style2"/><stop offset="0.691" class="style3"/><stop offset="1" class="style4"/></linearGradient><path d="M16.3 61.2L15 61.8c-1.1 0.5-1.9 1-2.5 1.3l0 0c0.4-0.4 1-1 1.4-1.4l1.7-1.9l-0.5-1l-5.5 2.7 l0.5 0.9l1.2-0.6c1-0.5 1.9-1 2.5-1.3l0 0c-0.4 0.4-1 1-1.3 1.4l-1.8 1.9l0.5 1l5.5-2.7L16.3 61.2z" class="style24"/><linearGradient gradientUnits="userSpaceOnUse" x1="-5.9" y1="35.4" x2="43.4" y2="99"><stop offset="0" class="style1"/><stop offset="0.3427" class="style2"/><stop offset="0.691" class="style3"/><stop offset="1" class="style4"/></linearGradient><path d="M10.7 59.7c0.5-0.2 1-0.7 1.2-1.6c0.2-0.6 0.3-0.9 0.7-1.1c0.4-0.1 0.7 0 0.9 0.6 c0.1 0.3 0.2 0.8 0.1 1l1-0.2c0-0.2 0-0.7-0.1-1.2c-0.4-1.1-1.4-1.7-2.4-1.3c-0.6 0.2-1.1 0.7-1.3 1.6c-0.2 0.8-0.3 1-0.6 1.1 c-0.3 0.1-0.7 0-0.8-0.5c-0.1-0.3-0.1-0.6-0.1-0.8l-1 0.2c0 0.2 0 0.6 0.1 1C8.8 59.6 9.8 60 10.7 59.7z" class="style25"/><linearGradient gradientUnits="userSpaceOnUse" x1="-7.3" y1="36.5" x2="42" y2="100.1"><stop offset="0" class="style1"/><stop offset="0.3427" class="style2"/><stop offset="0.691" class="style3"/><stop offset="1" class="style4"/></linearGradient><path d="M18.1 64.2c-0.6-1-1.9-1.1-3.8 0.1c-1.2 0.8-2.3 2-1.5 3.2c0.7 1.1 2.3 0.9 3.7 0 C17.9 66.7 18.9 65.4 18.1 64.2z M13.7 67.1c-0.3-0.5 0.4-1.1 1.3-1.7c1-0.7 1.9-1 2.2-0.6c0.3 0.4-0.2 1-1.4 1.8 C14.8 67.3 14 67.5 13.7 67.1z" class="style26"/><linearGradient gradientUnits="userSpaceOnUse" x1="5.7" y1="26.4" x2="54.9" y2="90.1"><stop offset="0" class="style1"/><stop offset="0.3427" class="style2"/><stop offset="0.691" class="style3"/><stop offset="1" class="style4"/></linearGradient><polygon points="10,34.9 9.8,33.8 9.8,33.7 14.4,35.3 14.8,34.2 9.2,32.3 8.8,33.2 9,34.8" class="style27"/><linearGradient gradientUnits="userSpaceOnUse" x1="8.5" y1="24.2" x2="57.8" y2="87.9"><stop offset="0" class="style1"/><stop offset="0.3427" class="style2"/><stop offset="0.691" class="style3"/><stop offset="1" class="style4"/></linearGradient><path d="M12.5 31.9c1.4 0.7 2.9 0.9 3.5-0.3c0.4-0.9-0.1-2-2-2.9c-1.3-0.6-2.8-1-3.4 0.2 C10 30.1 10.9 31.2 12.5 31.9z M11.4 29.4c0.2-0.3 0.9-0.1 2 0.4c1.2 0.6 1.8 1 1.6 1.3c-0.2 0.4-0.8 0.2-2.1-0.4 C11.7 30.2 11.2 29.8 11.4 29.4z" class="style28"/><linearGradient gradientUnits="userSpaceOnUse" x1="11.4" y1="22" x2="60.7" y2="85.6"><stop offset="0" class="style1"/><stop offset="0.3427" class="style2"/><stop offset="0.691" class="style3"/><stop offset="1" class="style4"/></linearGradient><path d="M14.3 28.3c1.3 0.8 2.8 1.2 3.5 0.1c0.5-0.8 0.1-2-1.7-3.1c-1.2-0.7-2.7-1.3-3.4-0.2 C12 26.2 12.8 27.4 14.3 28.3z M13.5 25.7c0.2-0.3 0.9 0 2 0.6c1.2 0.7 1.6 1.2 1.4 1.5c-0.2 0.3-0.8 0.2-2-0.6 C13.7 26.5 13.3 26 13.5 25.7z" class="style29"/><linearGradient gradientUnits="userSpaceOnUse" x1="20.4" y1="15" x2="69.7" y2="78.6"><stop offset="0" class="style1"/><stop offset="0.3427" class="style2"/><stop offset="0.691" class="style3"/><stop offset="1" class="style4"/></linearGradient><path d="M22.7 18.5c0.6-0.1 1-0.1 1.3 0.3c0.3 0.3 0.2 0.7-0.2 1.1c-0.3 0.2-0.7 0.4-0.9 0.5l0.5 0.9 c0.2 0 0.7-0.2 1.1-0.6c0.9-0.8 1.1-1.9 0.4-2.7c-0.4-0.5-1-0.8-2-0.6c-0.8 0.1-1 0.1-1.3-0.2c-0.2-0.3-0.2-0.6 0.2-1 c0.3-0.2 0.5-0.3 0.7-0.3l-0.5-0.9c-0.2 0-0.6 0.2-0.9 0.5c-1 0.8-1 1.9-0.3 2.6C21 18.4 21.7 18.6 22.7 18.5z" class="style30"/><linearGradient gradientUnits="userSpaceOnUse" x1="48.7" y1="-6.9" x2="98" y2="56.7"><stop offset="0" class="style1"/><stop offset="0.3427" class="style2"/><stop offset="0.691" class="style3"/><stop offset="1" class="style4"/></linearGradient><path d="M64.1 17.9l1-1l0.9 0.6l-0.6 1.3l1 0.7l2.5-5.7l-1.2-0.8l-4.6 4.3L64.1 17.9z M66.7 15.3 c0.3-0.3 0.7-0.7 1-1l0 0c-0.2 0.4-0.5 0.9-0.6 1.3l-0.6 1.2l-0.7-0.5L66.7 15.3z" class="style31"/><linearGradient gradientUnits="userSpaceOnUse" x1="32.9" y1="5.4" x2="82.1" y2="69"><stop offset="0" class="style1"/><stop offset="0.3427" class="style2"/><stop offset="0.691" class="style3"/><stop offset="1" class="style4"/></linearGradient><path d="M37.5 13.7l-0.6-2.4l0.2 0c0.4-0.1 0.6 0.1 0.9 0.8c0.3 0.6 0.5 1.2 0.7 1.4l1.2-0.3 c-0.2-0.2-0.5-0.9-0.8-1.5c-0.3-0.6-0.6-0.9-1-1l0 0c0.5-0.4 0.7-1.1 0.5-1.7c-0.1-0.5-0.3-0.9-0.8-1.1c-0.5-0.2-1.1-0.2-1.7 0 c-0.4 0.1-0.9 0.3-1.2 0.4l1.5 5.9L37.5 13.7z M36.5 8.6c0.5-0.1 0.8 0.2 0.9 0.7c0.1 0.5-0.1 1-0.6 1.1l-0.2 0.1l-0.4-1.8 C36.3 8.6 36.4 8.6 36.5 8.6z" class="style32"/><linearGradient gradientUnits="userSpaceOnUse" x1="50.2" y1="-8.1" x2="99.5" y2="55.5"><stop offset="0" class="style1"/><stop offset="0.3427" class="style2"/><stop offset="0.691" class="style3"/><stop offset="1" class="style4"/></linearGradient><polygon points="72.5,25.6 77.3,21.8 76.6,20.9 71.8,24.7" class="style33"/><linearGradient gradientUnits="userSpaceOnUse" x1="50.1" y1="-8" x2="99.4" y2="55.6"><stop offset="0" class="style1"/><stop offset="0.3427" class="style2"/><stop offset="0.691" class="style3"/><stop offset="1" class="style4"/></linearGradient><polygon points="73.5,19.2 69.9,22.6 70.7,23.5 74.4,20 75.1,20.8 75.9,20.1 73.6,17.6 72.8,18.4" class="style34"/><linearGradient gradientUnits="userSpaceOnUse" x1="49.6" y1="-7.6" x2="98.9" y2="56"><stop offset="0" class="style1"/><stop offset="0.3427" class="style2"/><stop offset="0.691" class="style3"/><stop offset="1" class="style4"/></linearGradient><path d="M75.8 30.8l1.2-0.6c1.1-0.5 1.9-1 2.5-1.3l0 0c-0.4 0.4-1 1-1.4 1.4l-1.7 1.9l0.5 1l5.5-2.7 L82 29.6l-1.2 0.6c-1 0.5-1.9 1-2.5 1.3l0 0c0.4-0.4 1-1 1.3-1.4l1.8-1.9l-0.5-1l-5.5 2.7L75.8 30.8z" class="style35"/><linearGradient gradientUnits="userSpaceOnUse" x1="50.1" y1="-8" x2="99.4" y2="55.6"><stop offset="0" class="style1"/><stop offset="0.3427" class="style2"/><stop offset="0.691" class="style3"/><stop offset="1" class="style4"/></linearGradient><path d="M73.9 27.8c0.6 1 1.9 1.1 3.8-0.1c1.2-0.8 2.3-2 1.5-3.2c-0.7-1.1-2.3-0.9-3.7 0 C74.1 25.3 73.2 26.6 73.9 27.8z M78.3 24.9c0.3 0.5-0.4 1.1-1.3 1.7c-1 0.7-1.9 1-2.2 0.6c-0.3-0.4 0.2-1 1.4-1.8 C77.3 24.7 78.1 24.5 78.3 24.9z" class="style36"/><linearGradient gradientUnits="userSpaceOnUse" x1="49.8" y1="-7.7" x2="99" y2="55.9"><stop offset="0" class="style1"/><stop offset="0.3427" class="style2"/><stop offset="0.691" class="style3"/><stop offset="1" class="style4"/></linearGradient><path d="M68.4 17.3c-1.1 1.3-1.4 2.8-0.2 3.8c0.3 0.3 0.6 0.4 0.8 0.5l0.6-0.8c-0.1-0.1-0.3-0.2-0.5-0.3 c-0.6-0.5-0.6-1.3 0.3-2.4c1-1.2 1.8-1.2 2.3-0.8c0.2 0.2 0.3 0.3 0.3 0.5l0.8-0.6c0-0.1-0.2-0.4-0.5-0.7 C71.5 15.7 69.9 15.5 68.4 17.3z" class="style37"/><linearGradient gradientUnits="userSpaceOnUse" x1="41.5" y1="-1.3" x2="90.8" y2="62.3"><stop offset="0" class="style1"/><stop offset="0.3427" class="style2"/><stop offset="0.691" class="style3"/><stop offset="1" class="style4"/></linearGradient><path d="M49.9 10.4l0.2 0c0.4 0 0.6 0.3 0.6 1c0 0.7 0.1 1.3 0.1 1.5l1.2 0.1c-0.1-0.2-0.2-1-0.2-1.7 c0-0.7-0.2-1.1-0.6-1.3l0 0c0.6-0.2 1-0.8 1.1-1.4c0.1-0.5 0-0.9-0.3-1.3c-0.3-0.4-0.9-0.6-1.6-0.6c-0.5-0.1-0.9-0.1-1.3 0l-0.7 6 l1.2 0.1L49.9 10.4z M50.2 7.6c0.1 0 0.2 0 0.3 0c0.5 0.1 0.7 0.5 0.6 1c-0.1 0.5-0.4 0.9-0.9 0.9l-0.2 0L50.2 7.6z" class="style38"/><linearGradient gradientUnits="userSpaceOnUse" x1="39.6" y1="0.1" x2="88.9" y2="63.8"><stop offset="0" class="style1"/><stop offset="0.3427" class="style2"/><stop offset="0.691" class="style3"/><stop offset="1" class="style4"/></linearGradient><polygon points="45.7,12.6 46.9,12.6 46.9,7.6 48,7.6 48.1,6.5 44.7,6.4 44.7,7.5 45.8,7.6" class="style39"/><linearGradient gradientUnits="userSpaceOnUse" x1="35.9" y1="3" x2="85.2" y2="66.6"><stop offset="0" class="style1"/><stop offset="0.3427" class="style2"/><stop offset="0.691" class="style3"/><stop offset="1" class="style4"/></linearGradient><polygon points="43.1,12.7 42.9,11.7 41.4,11.9 41.2,10.2 42.5,10 42.4,9.1 41,9.2 40.8,7.8 42.3,7.7 42.2,6.6 39.5,7 40.3,13.1" class="style40"/><linearGradient gradientUnits="userSpaceOnUse" x1="47.7" y1="-6.1" x2="96.9" y2="57.5"><stop offset="0" class="style1"/><stop offset="0.3427" class="style2"/><stop offset="0.691" class="style3"/><stop offset="1" class="style4"/></linearGradient><path d="M62.8 15.2c-0.2 0.4-0.6 0.5-1.1 0.2c-0.3-0.2-0.6-0.4-0.8-0.7l-0.6 0.8c0.1 0.2 0.5 0.5 0.9 0.8 c1.1 0.6 2.1 0.3 2.7-0.7c0.3-0.6 0.3-1.3-0.2-2.1c-0.4-0.7-0.5-0.9-0.3-1.2c0.2-0.3 0.5-0.4 1-0.2c0.3 0.2 0.5 0.4 0.6 0.5 l0.7-0.8c-0.1-0.2-0.4-0.5-0.8-0.6c-1.1-0.6-2.1-0.2-2.6 0.7c-0.3 0.5-0.3 1.2 0.2 2.1C62.9 14.5 63 14.8 62.8 15.2z" class="style41"/><linearGradient gradientUnits="userSpaceOnUse" x1="43.7" y1="-3" x2="93" y2="60.6"><stop offset="0" class="style1"/><stop offset="0.3427" class="style2"/><stop offset="0.691" class="style3"/><stop offset="1" class="style4"/></linearGradient><path d="M53.2 13.4l0.6-1.3l1.1 0.3l-0.1 1.4l1.1 0.3l0.3-6.2l-1.4-0.3L52 13.1L53.2 13.4z M54.6 10 c0.1-0.3 0.4-0.9 0.5-1.3l0 0c0 0.4-0.1 1-0.1 1.4L55 11.4l-0.8-0.2L54.6 10z" class="style42"/><linearGradient gradientUnits="userSpaceOnUse" x1="46.1" y1="-4.9" x2="95.4" y2="58.7"><stop offset="0" class="style1"/><stop offset="0.3427" class="style2"/><stop offset="0.691" class="style3"/><stop offset="1" class="style4"/></linearGradient><path d="M57.8 13.3c0.4-1.2 0.7-2.1 0.9-2.6l0 0c-0.1 0.6-0.1 1.4-0.1 2l0 2.5l1 0.4L62 9.8l-1-0.4 l-0.5 1.3c-0.4 1.1-0.7 2.1-0.9 2.7l0 0c0-0.6 0-1.4 0-1.9l0-2.6l-1-0.4l-2.2 5.7l1 0.4L57.8 13.3z" class="style43"/><linearGradient gradientUnits="userSpaceOnUse" x1="27.5" y1="9.5" x2="76.8" y2="73.1"><stop offset="0" class="style1"/><stop offset="0.3427" class="style2"/><stop offset="0.691" class="style3"/><stop offset="1" class="style4"/></linearGradient><polygon points="72.4,66.4 75,72.8 75.4,72.3 72.8,65.9" class="style44"/><linearGradient gradientUnits="userSpaceOnUse" x1="26" y1="10.6" x2="75.3" y2="74.3"><stop offset="0" class="style1"/><stop offset="0.3427" class="style2"/><stop offset="0.691" class="style3"/><stop offset="1" class="style4"/></linearGradient><path d="M72.6 68.9c-0.7-0.6-1.6-0.9-2.1-0.2c-0.4 0.5-0.3 1.3 0.6 2.1c0.6 0.5 1.6 0.9 2.1 0.3 C73.8 70.4 73.4 69.5 72.6 68.9z M72.8 70.6c-0.2 0.2-0.6 0-1.2-0.5c-0.6-0.5-0.8-0.8-0.7-1c0.2-0.2 0.6 0 1.2 0.5 C72.7 70 73 70.4 72.8 70.6z" class="style45"/><linearGradient gradientUnits="userSpaceOnUse" x1="16.3" y1="18.2" x2="65.6" y2="81.8"><stop offset="0" class="style1"/><stop offset="0.3427" class="style2"/><stop offset="0.691" class="style3"/><stop offset="1" class="style4"/></linearGradient><path d="M61 75.8c-0.4 0.2-0.6 0.4-0.7 0.6l0.6 0.8c0.1-0.1 0.3-0.3 0.5-0.3c0.6-0.3 1.4-0.1 2.1 1.2 c0.7 1.3 0.5 2.1-0.1 2.5c-0.2 0.1-0.4 0.1-0.5 0.2l0.3 1c0.1 0 0.4 0 0.8-0.2c1.1-0.6 1.8-2 0.7-4C63.7 75.8 62.4 75.1 61 75.8z" class="style46"/><linearGradient gradientUnits="userSpaceOnUse" x1="22.4" y1="13.5" x2="71.7" y2="77.1"><stop offset="0" class="style1"/><stop offset="0.3427" class="style2"/><stop offset="0.691" class="style3"/><stop offset="1" class="style4"/></linearGradient><path d="M69.4 73.5c-0.6 0.1-1 0.1-1.3-0.3c-0.3-0.3-0.2-0.7 0.2-1.1c0.3-0.2 0.7-0.4 0.9-0.5l-0.5-0.9 c-0.2 0-0.7 0.2-1.1 0.6c-0.9 0.8-1.1 1.9-0.4 2.7c0.4 0.5 1 0.8 2 0.6c0.8-0.1 1-0.1 1.3 0.2c0.2 0.3 0.2 0.6-0.2 1 c-0.3 0.2-0.5 0.3-0.7 0.3l0.5 0.9c0.2 0 0.6-0.2 0.9-0.5c1-0.8 1-1.9 0.3-2.6C71 73.6 70.3 73.4 69.4 73.5z" class="style47"/><linearGradient gradientUnits="userSpaceOnUse" x1="19.4" y1="15.8" x2="68.7" y2="79.4"><stop offset="0" class="style1"/><stop offset="0.3427" class="style2"/><stop offset="0.691" class="style3"/><stop offset="1" class="style4"/></linearGradient><polygon points="63.4,74.6 64,75.4 65.3,74.5 66.2,75.9 65.1,76.7 65.6,77.5 66.8,76.7 67.6,77.9 66.3,78.7 66.9,79.6 69.1,78.1 65.7,73" class="style48"/><linearGradient gradientUnits="userSpaceOnUse" x1="10" y1="23.1" x2="59.2" y2="86.7"><stop offset="0" class="style1"/><stop offset="0.3427" class="style2"/><stop offset="0.691" class="style3"/><stop offset="1" class="style4"/></linearGradient><path d="M54.6 78.3l0.6 2.4l-0.2 0c-0.4 0.1-0.6-0.1-0.9-0.8c-0.3-0.6-0.5-1.2-0.7-1.4l-1.2 0.3 c0.2 0.2 0.5 0.9 0.8 1.5c0.3 0.6 0.6 0.9 1 1l0 0c-0.5 0.4-0.7 1.1-0.5 1.7c0.1 0.5 0.3 0.9 0.8 1.1c0.5 0.2 1.1 0.2 1.7 0 c0.4-0.1 0.9-0.3 1.2-0.4L55.7 78L54.6 78.3z M55.5 83.4c-0.5 0.1-0.8-0.2-0.9-0.7c-0.1-0.5 0.1-1 0.6-1.1l0.2-0.1l0.4 1.8 C55.8 83.4 55.7 83.4 55.5 83.4z" class="style49"/><linearGradient gradientUnits="userSpaceOnUse" x1="13.1" y1="20.7" x2="62.4" y2="84.3"><stop offset="0" class="style1"/><stop offset="0.3427" class="style2"/><stop offset="0.691" class="style3"/><stop offset="1" class="style4"/></linearGradient><path d="M58.1 77.1c-1.1 0.4-1.3 1.4-0.8 2.9l1.4 3.5l1.1-0.4l-1.5-3.7c-0.3-0.9-0.2-1.2 0.1-1.3 c0.3-0.1 0.6 0 1 0.9l1.5 3.7l1.1-0.4l-1.4-3.5C60.1 77.2 59.3 76.6 58.1 77.1z" class="style50"/><linearGradient gradientUnits="userSpaceOnUse" x1="37.2" y1="2" x2="86.4" y2="65.6"><stop offset="0" class="style1"/><stop offset="0.3427" class="style2"/><stop offset="0.691" class="style3"/><stop offset="1" class="style4"/></linearGradient><polygon points="82.1,57.1 82.2,58.2 82.2,58.3 77.7,56.7 77.3,57.8 82.9,59.7 83.2,58.8 83,57.2" class="style51"/><linearGradient gradientUnits="userSpaceOnUse" x1="48.7" y1="-6.9" x2="98" y2="56.7"><stop offset="0" class="style1"/><stop offset="0.3427" class="style2"/><stop offset="0.691" class="style3"/><stop offset="1" class="style4"/></linearGradient><path d="M83.6 33.6c-0.4-1.2-1.4-1.6-2.3-1.2c-0.5 0.2-1 0.7-1.2 1.6c-0.2 0.6-0.3 0.9-0.7 1.1 c-0.4 0.1-0.7 0-0.9-0.6c-0.1-0.3-0.2-0.8-0.1-1l-1 0.2c0 0.2 0 0.7 0.1 1.2c0.4 1.1 1.4 1.7 2.4 1.3c0.6-0.2 1.1-0.7 1.3-1.6 c0.2-0.8 0.3-1 0.6-1.1c0.3-0.1 0.7 0 0.8 0.5c0.1 0.3 0.1 0.6 0.1 0.8l1-0.2C83.8 34.4 83.8 34 83.6 33.6z" class="style52"/><linearGradient gradientUnits="userSpaceOnUse" x1="29" y1="8.4" x2="78.3" y2="72"><stop offset="0" class="style1"/><stop offset="0.3427" class="style2"/><stop offset="0.691" class="style3"/><stop offset="1" class="style4"/></linearGradient><path d="M76.6 68c-0.7-0.6-1.6-0.9-2.1-0.2c-0.4 0.5-0.3 1.3 0.6 2.1c0.6 0.5 1.6 0.9 2.1 0.3 C77.7 69.5 77.3 68.6 76.6 68z M76.8 69.7c-0.2 0.2-0.6 0-1.2-0.5c-0.6-0.5-0.8-0.8-0.7-1c0.2-0.2 0.6 0 1.2 0.5 C76.7 69.1 76.9 69.5 76.8 69.7z" class="style53"/><linearGradient gradientUnits="userSpaceOnUse" x1="6.9" y1="25.5" x2="56.2" y2="89.1"><stop offset="0" class="style1"/><stop offset="0.3427" class="style2"/><stop offset="0.691" class="style3"/><stop offset="1" class="style4"/></linearGradient><polygon points="49,79.3 49.1,80.3 50.7,80.1 50.9,81.8 49.5,82 49.6,82.9 51,82.8 51.2,84.2 49.7,84.3 49.9,85.4 52.5,85 51.7,78.9" class="style54"/><linearGradient gradientUnits="userSpaceOnUse" x1="-6.9" y1="36.2" x2="42.3" y2="99.8"><stop offset="0" class="style1"/><stop offset="0.3427" class="style2"/><stop offset="0.691" class="style3"/><stop offset="1" class="style4"/></linearGradient><path d="M23.6 74.7c1.1-1.3 1.4-2.8 0.2-3.8c-0.3-0.3-0.6-0.4-0.8-0.5l-0.6 0.8c0.1 0.1 0.3 0.2 0.5 0.3 c0.6 0.5 0.6 1.3-0.3 2.4c-1 1.2-1.8 1.2-2.3 0.8c-0.2-0.2-0.3-0.3-0.3-0.5l-0.8 0.6c0 0.1 0.2 0.4 0.5 0.7 C20.6 76.3 22.1 76.5 23.6 74.7z" class="style55"/><linearGradient gradientUnits="userSpaceOnUse" x1="34.3" y1="4.2" x2="83.6" y2="67.8"><stop offset="0" class="style1"/><stop offset="0.3427" class="style2"/><stop offset="0.691" class="style3"/><stop offset="1" class="style4"/></linearGradient><path d="M79.6 60.1c-1.4-0.7-2.9-0.9-3.5 0.3c-0.4 0.9 0.1 2 2 2.9c1.3 0.6 2.8 1 3.4-0.2 C82.1 61.9 81.1 60.8 79.6 60.1z M80.6 62.6c-0.2 0.3-0.9 0.1-2-0.4c-1.2-0.6-1.8-1-1.6-1.3c0.2-0.4 0.8-0.2 2.1 0.4 C80.3 61.8 80.8 62.2 80.6 62.6z" class="style56"/><linearGradient gradientUnits="userSpaceOnUse" x1="31.4" y1="6.5" x2="80.7" y2="70.1"><stop offset="0" class="style1"/><stop offset="0.3427" class="style2"/><stop offset="0.691" class="style3"/><stop offset="1" class="style4"/></linearGradient><path d="M77.8 63.7c-1.3-0.8-2.8-1.2-3.5-0.1c-0.5 0.8-0.1 2 1.7 3.1c1.2 0.7 2.7 1.3 3.4 0.2 C80.1 65.8 79.2 64.6 77.8 63.7z M78.6 66.3c-0.2 0.3-0.9 0-2-0.6c-1.2-0.7-1.6-1.2-1.4-1.5c0.2-0.3 0.8-0.2 2 0.6 C78.3 65.5 78.8 66 78.6 66.3z" class="style57"/><linearGradient gradientUnits="userSpaceOnUse" x1="-3.3" y1="33.3" x2="46" y2="97"><stop offset="0" class="style1"/><stop offset="0.3427" class="style2"/><stop offset="0.691" class="style3"/><stop offset="1" class="style4"/></linearGradient><path d="M34.2 78.7c-0.4 1.2-0.7 2.1-0.9 2.6l0 0c0.1-0.6 0.1-1.4 0.1-2l0-2.5l-1-0.4l-2.2 5.7l1 0.4 l0.5-1.3c0.4-1.1 0.7-2.1 0.9-2.7l0 0c0 0.6 0 1.4 0 1.9l0 2.6l1 0.4l2.2-5.7l-1-0.4L34.2 78.7z" class="style58"/><linearGradient gradientUnits="userSpaceOnUse" x1="-0.9" y1="31.5" x2="48.4" y2="95.1"><stop offset="0" class="style1"/><stop offset="0.3427" class="style2"/><stop offset="0.691" class="style3"/><stop offset="1" class="style4"/></linearGradient><path d="M38.9 78.6l-0.6 1.3l-1.1-0.3l0.1-1.4L36.2 78l-0.3 6.2l1.4 0.3l2.8-5.6L38.9 78.6z M37.4 82 c-0.1 0.3-0.4 0.9-0.5 1.3l0 0c0-0.4 0.1-1 0.1-1.4l0.1-1.3l0.8 0.2L37.4 82z" class="style59"/><linearGradient gradientUnits="userSpaceOnUse" x1="-4.8" y1="34.6" x2="44.4" y2="98.2"><stop offset="0" class="style1"/><stop offset="0.3427" class="style2"/><stop offset="0.691" class="style3"/><stop offset="1" class="style4"/></linearGradient><path d="M29.2 76.8c0.2-0.4 0.6-0.5 1.1-0.2c0.3 0.2 0.6 0.4 0.8 0.7l0.6-0.8c-0.1-0.2-0.5-0.5-0.9-0.8 c-1.1-0.6-2.1-0.3-2.7 0.7c-0.3 0.6-0.3 1.3 0.2 2.1c0.4 0.7 0.5 0.9 0.3 1.2c-0.2 0.3-0.5 0.4-1 0.2c-0.3-0.2-0.5-0.4-0.6-0.5 l-0.7 0.8c0.1 0.2 0.4 0.5 0.8 0.6c1.1 0.6 2.1 0.2 2.6-0.7c0.3-0.5 0.3-1.2-0.2-2.1C29.1 77.5 29 77.2 29.2 76.8z" class="style60"/><linearGradient gradientUnits="userSpaceOnUse" x1="-5.9" y1="35.4" x2="43.4" y2="99"><stop offset="0" class="style1"/><stop offset="0.3427" class="style2"/><stop offset="0.691" class="style3"/><stop offset="1" class="style4"/></linearGradient><path d="M27.9 74.1l-1 1L26 74.5l0.6-1.3l-1-0.7l-2.5 5.7l1.2 0.8l4.6-4.3L27.9 74.1z M25.4 76.7 c-0.3 0.3-0.7 0.7-1 1l0 0c0.2-0.4 0.5-0.9 0.6-1.3l0.6-1.2l0.7 0.5L25.4 76.7z" class="style61"/><linearGradient gradientUnits="userSpaceOnUse" x1="1.3" y1="29.8" x2="50.6" y2="93.4"><stop offset="0" class="style1"/><stop offset="0.3427" class="style2"/><stop offset="0.691" class="style3"/><stop offset="1" class="style4"/></linearGradient><path d="M42.1 81.6l-0.2 0c-0.4 0-0.6-0.3-0.6-1c0-0.7-0.1-1.3-0.1-1.5L40 78.9c0.1 0.2 0.2 1 0.2 1.7 c0 0.7 0.2 1.1 0.6 1.3l0 0c-0.6 0.2-1 0.8-1.1 1.4c-0.1 0.5 0 0.9 0.3 1.3c0.3 0.4 0.9 0.6 1.6 0.6c0.5 0.1 0.9 0.1 1.3 0l0.7-6 l-1.2-0.1L42.1 81.6z M41.8 84.4c-0.1 0-0.2 0-0.3 0c-0.5-0.1-0.7-0.5-0.6-1c0.1-0.5 0.4-0.9 0.9-0.9l0.2 0L41.8 84.4z" class="style62"/><linearGradient gradientUnits="userSpaceOnUse" x1="3.2" y1="28.3" x2="52.5" y2="91.9"><stop offset="0" class="style1"/><stop offset="0.3427" class="style2"/><stop offset="0.691" class="style3"/><stop offset="1" class="style4"/></linearGradient><polygon points="46.4,79.4 45.2,79.4 45.1,84.4 44,84.4 44,85.5 47.4,85.6 47.4,84.5 46.3,84.4" class="style63"/></g><g><linearGradient gradientUnits="userSpaceOnUse" x1="-1.4" y1="31.9" x2="47.9" y2="95.5"><stop offset="0" class="style1"/><stop offset="0.3427" class="style2"/><stop offset="0.691" class="style3"/><stop offset="1" class="style4"/></linearGradient><polygon points="10.8,44.8 9.8,42.8 8.7,44.8 6.5,45.2 8.1,46.8 7.8,49 9.8,48 11.8,49 11.4,46.8 13,45.2" class="style64"/><linearGradient gradientUnits="userSpaceOnUse" x1="43.8" y1="-3.1" x2="93.1" y2="60.5"><stop offset="0" class="style1"/><stop offset="0.3427" class="style2"/><stop offset="0.691" class="style3"/><stop offset="1" class="style4"/></linearGradient><polygon points="85.3,45.2 83,44.8 82,42.8 81,44.8 78.8,45.2 80.4,46.8 80,49 82,48 84,49 83.7,46.8" class="style65"/></g><linearGradient gradientUnits="userSpaceOnUse" x1="21.4" y1="14.2" x2="70.7" y2="77.9"><stop offset="0" class="style1"/><stop offset="0.3427" class="style2"/><stop offset="0.691" class="style3"/><stop offset="1" class="style4"/></linearGradient><path d="M46 15.7c16.8 0 30.4 13.6 30.4 30.3c0 16.7-13.6 30.3-30.4 30.3c-16.8 0-30.4-13.6-30.4-30.3 C15.6 29.3 29.2 15.7 46 15.7L46 15.7z M46 14.7c-8.4 0-16.2 3.3-22.1 9.2c-5.9 5.9-9.2 13.8-9.2 22.1s3.3 16.2 9.2 22.1 c5.9 5.9 13.8 9.2 22.1 9.2s16.2-3.3 22.1-9.2c5.9-5.9 9.2-13.8 9.2-22.1s-3.3-16.2-9.2-22.1C62.2 18 54.4 14.7 46 14.7L46 14.7z" class="style66"/></g></svg>