<?xml version="1.0" encoding="UTF-8"?><svg id="a" xmlns="http://www.w3.org/2000/svg" viewBox="0 0 96 96"><defs><style>.b{fill:#ff5460;}</style></defs><path class="b" d="M21.73,78.39c-5.37,0-9.73-4.37-9.73-9.73,0-4.64,3.27-8.54,7.62-9.5v-22.45c0-8.46,6.89-15.35,15.35-15.35s15.35,6.89,15.35,15.35v26.2c0,5.98,4.87,10.85,10.85,10.85s10.85-4.87,10.85-10.85v-26.08c-4.29-1.02-7.48-4.88-7.48-9.47,0-5.37,4.37-9.73,9.73-9.73s9.73,4.37,9.73,9.73c0,4.59-3.2,8.45-7.48,9.47v26.08c0,8.46-6.89,15.35-15.35,15.35s-15.35-6.89-15.35-15.35v-26.2c0-5.98-4.87-10.85-10.85-10.85s-10.85,4.87-10.85,10.85v22.51c4.22,1.07,7.35,4.89,7.35,9.44,0,5.37-4.37,9.73-9.73,9.73Zm0-14.97c-2.89,0-5.23,2.35-5.23,5.23s2.35,5.23,5.23,5.23,5.23-2.35,5.23-5.23-2.35-5.23-5.23-5.23ZM74.27,22.11c-2.89,0-5.23,2.35-5.23,5.23s2.35,5.23,5.23,5.23,5.23-2.35,5.23-5.23-2.35-5.23-5.23-5.23Z"/></svg>