<?xml version="1.0" encoding="UTF-8"?><svg id="a" xmlns="http://www.w3.org/2000/svg" viewBox="0 0 256 256"><defs><style>.b{fill:none;stroke:#ff5460;stroke-width:12px;}</style></defs><path class="b" d="M197.17,70.42c-4.4,1.67-9.18,2.58-14.17,2.58-19.94,0-36.47-14.59-39.5-33.67-5.03-.87-10.21-1.33-15.5-1.33s-10.46,.46-15.5,1.33c-3.03,19.08-19.56,33.67-39.5,33.67-4.99,0-9.77-.91-14.17-2.58-6.56,7.88-11.81,16.89-15.39,26.71,8.89,7.34,14.57,18.44,14.57,30.87s-5.67,23.54-14.57,30.87c3.58,9.82,8.83,18.83,15.39,26.71,4.4-1.67,9.18-2.58,14.17-2.58,19.94,0,36.47,14.59,39.5,33.67,5.03,.87,10.21,1.33,15.5,1.33s10.46-.45,15.5-1.33c3.03-19.08,19.56-33.67,39.5-33.67,4.99,0,9.77,.91,14.17,2.58,6.56-7.88,11.81-16.89,15.39-26.71-8.89-7.34-14.56-18.44-14.56-30.87s5.67-23.54,14.56-30.87c-3.58-9.82-8.83-18.83-15.39-26.71Z"/><path class="b" d="M148,128c0,11.05-8.96,20-20,20s-20-8.95-20-20,8.95-20,20-20,20,8.95,20,20Z"/></svg>