<?xml version="1.0" encoding="UTF-8"?><svg id="a" xmlns="http://www.w3.org/2000/svg" viewBox="0 0 256 256"><defs><style>.b{fill:none;stroke:#ff5460;stroke-miterlimit:10;stroke-width:12px;}.c{fill:#ff5460;}</style></defs><path class="c" d="M219.52,105.31h-25.45l5.55,21.89,17.85-4.46c1.72-.4,3.25-1.43,4.34-2.79,1.09-1.43,1.69-3.18,1.69-4.93v-5.73c0-1.03-.42-2.07-1.16-2.79-.75-.8-1.76-1.19-2.82-1.19Z"/><path class="c" d="M36.48,105.31h25.45l-5.55,21.89-17.85-4.46c-1.72-.4-3.25-1.43-4.34-2.79-1.09-1.43-1.69-3.18-1.69-4.93v-5.73c0-1.03,.42-2.07,1.16-2.79,.75-.8,1.76-1.19,2.82-1.19Z"/><path class="c" d="M72.63,158.94c4.63,2.52,8.46,5.9,11.11,9.97,.3,.52,.45,1.13,.41,1.74-.01,.52-.18,1.13-.51,1.56-.31,.52-.81,.87-1.42,1.13-.54,.35-1.18,.43-1.82,.43h-23.12v-18.91c5.44,.26,10.73,1.65,15.35,4.08Z"/><path class="c" d="M184.26,158.94c-4.63,2.52-8.46,5.9-11.11,9.97-.3,.52-.45,1.13-.41,1.74,.01,.52,.18,1.13,.51,1.56,.31,.52,.81,.87,1.42,1.13,.54,.35,1.18,.43,1.82,.43h23.12v-18.91c-5.44,.26-10.73,1.65-15.35,4.08Z"/><path class="c" d="M127.68,168.83h0c-14.2-1.18-28.05-5.52-40.8-12.81-1.52-1.41-2.74-3.17-3.57-5.29-.85-2-1.28-4.23-1.27-6.46,.72-3.53,4.02-3.29,7.93-3.29h75.41c3.92,0,7.21,0,7.93,3.29,.01,2.23-.42,4.47-1.27,6.46-.84,2.12-2.05,3.88-3.58,5.29-12.74,7.29-26.6,11.63-40.8,12.81Z"/><line class="b" x1="56.28" y1="189.63" x2="199.61" y2="189.63"/><line class="b" x1="56.28" y1="120.73" x2="199.61" y2="120.73"/><path class="b" d="M74.31,191.99v13.42c0,2.28-1.85,4.13-4.13,4.13h-9.68c-2.28,0-4.13-1.85-4.13-4.13V127.95l21.21-79.31c.35-1.31,1.54-2.22,2.9-2.22h95.03c1.36,0,2.55,.91,2.9,2.22l21.21,79.17v77.6c0,2.28-1.85,4.13-4.13,4.13h-9.67c-2.28,0-4.13-1.85-4.13-4.13v-15.49"/><rect class="c" x="59.26" y="190.93" width="12.89" height="19.73"/><rect class="c" x="185.55" y="190.93" width="12.26" height="19.73"/></svg>