<?xml version="1.0" encoding="UTF-8"?><svg id="a" xmlns="http://www.w3.org/2000/svg" viewBox="0 0 256 256"><defs><style>.b{fill:none;stroke:#ff5460;stroke-width:12px;}</style></defs><path class="b" d="M167.16,223.5v-58.74c0-21.63-17.52-39.16-39.16-39.16s-39.16,17.52-39.16,39.16v58.74m127.26,0v-44.05c0-13.51-10.97-24.47-24.47-24.47-1.66,0-3.33,.2-4.89,.49M39.89,223.5v-44.05c0-13.51,10.97-24.47,24.47-24.47,1.66,0,3.33,.2,4.89,.49m88.11-88.59c0,16.25-13.12,29.37-29.37,29.37s-29.37-13.12-29.37-29.37,13.12-29.37,29.37-29.37,29.37,13.12,29.37,29.37Zm48.95,44.05c0,8.13-6.56,14.68-14.68,14.68s-14.68-6.56-14.68-14.68,6.56-14.68,14.68-14.68,14.68,6.56,14.68,14.68Zm-127.26,0c0,8.13-6.56,14.68-14.68,14.68s-14.68-6.56-14.68-14.68,6.56-14.68,14.68-14.68,14.68,6.56,14.68,14.68Z"/></svg>