<?xml version="1.0" encoding="UTF-8"?><svg id="a" xmlns="http://www.w3.org/2000/svg" viewBox="0 0 256 256"><defs><style>.b,.c{stroke-miterlimit:10;}.b,.c,.d{fill:none;stroke:#ff5460;stroke-width:12px;}.c{stroke-dasharray:0 0 22.47 19.54;}</style></defs><path class="c" d="M201.8,138.41c-5.75,45.05-46.92,76.91-91.97,71.16-45.05-5.75-76.91-46.92-71.16-91.97,5.75-45.05,46.92-76.91,91.97-71.16,7.91,1.01,15.41,3.11,22.38,6.13,12.83,5.57,23.84,14.27,32.19,25.03"/><polyline class="b" points="218 87.76 200.06 115.65 172.18 97.71"/><path class="b" d="M119.53,45.77c16.32-.15,32.86,4.54,47.33,14.5,6.57,4.52,12.28,9.83,17.08,15.71,8.86,10.83,14.65,23.61,17.14,37"/><polyline class="d" points="120.36 74.68 120.36 129.52 166.06 129.52"/></svg>